%TF.GenerationSoftware,KiCad,Pcbnew,9.0.8-1.fc43*%
%TF.CreationDate,2026-04-06T14:18:54+02:00*%
%TF.ProjectId,CC1125_Transceiver,43433131-3235-45f5-9472-616e73636569,rev?*%
%TF.SameCoordinates,Original*%
%TF.FileFunction,Legend,Top*%
%TF.FilePolarity,Positive*%
%FSLAX46Y46*%
G04 Gerber Fmt 4.6, Leading zero omitted, Abs format (unit mm)*
G04 Created by KiCad (PCBNEW 9.0.8-1.fc43) date 2026-04-06 14:18:54*
%MOMM*%
%LPD*%
G01*
G04 APERTURE LIST*
G04 Aperture macros list*
%AMRoundRect*
0 Rectangle with rounded corners*
0 $1 Rounding radius*
0 $2 $3 $4 $5 $6 $7 $8 $9 X,Y pos of 4 corners*
0 Add a 4 corners polygon primitive as box body*
4,1,4,$2,$3,$4,$5,$6,$7,$8,$9,$2,$3,0*
0 Add four circle primitives for the rounded corners*
1,1,$1+$1,$2,$3*
1,1,$1+$1,$4,$5*
1,1,$1+$1,$6,$7*
1,1,$1+$1,$8,$9*
0 Add four rect primitives between the rounded corners*
20,1,$1+$1,$2,$3,$4,$5,0*
20,1,$1+$1,$4,$5,$6,$7,0*
20,1,$1+$1,$6,$7,$8,$9,0*
20,1,$1+$1,$8,$9,$2,$3,0*%
G04 Aperture macros list end*
%ADD10C,0.120000*%
%ADD11C,0.100000*%
%ADD12C,0.200000*%
%ADD13C,0.250000*%
%ADD14C,0.125000*%
%ADD15C,0.150000*%
%ADD16C,1.500000*%
%ADD17RoundRect,0.160000X-0.160000X0.197500X-0.160000X-0.197500X0.160000X-0.197500X0.160000X0.197500X0*%
%ADD18RoundRect,0.160000X0.160000X-0.222500X0.160000X0.222500X-0.160000X0.222500X-0.160000X-0.222500X0*%
%ADD19RoundRect,0.160000X0.160000X-0.197500X0.160000X0.197500X-0.160000X0.197500X-0.160000X-0.197500X0*%
%ADD20R,3.400000X1.000000*%
%ADD21R,3.300000X1.000000*%
%ADD22R,1.000000X3.050000*%
%ADD23R,1.000000X3.300000*%
%ADD24C,0.650000*%
%ADD25R,1.150000X0.600000*%
%ADD26R,1.150000X0.300000*%
%ADD27R,1.250000X1.550000*%
%ADD28R,1.500000X1.550000*%
%ADD29RoundRect,0.062500X0.375000X0.062500X-0.375000X0.062500X-0.375000X-0.062500X0.375000X-0.062500X0*%
%ADD30RoundRect,0.062500X0.062500X0.375000X-0.062500X0.375000X-0.062500X-0.375000X0.062500X-0.375000X0*%
%ADD31R,3.450000X3.450000*%
%ADD32RoundRect,0.155000X0.259862X-0.040659X-0.040659X0.259862X-0.259862X0.040659X0.040659X-0.259862X0*%
%ADD33RoundRect,0.155000X-0.212500X-0.155000X0.212500X-0.155000X0.212500X0.155000X-0.212500X0.155000X0*%
%ADD34RoundRect,0.160000X-0.222500X-0.160000X0.222500X-0.160000X0.222500X0.160000X-0.222500X0.160000X0*%
%ADD35RoundRect,0.155000X-0.155000X0.212500X-0.155000X-0.212500X0.155000X-0.212500X0.155000X0.212500X0*%
%ADD36RoundRect,0.160000X-0.197500X-0.160000X0.197500X-0.160000X0.197500X0.160000X-0.197500X0.160000X0*%
%ADD37RoundRect,0.155000X-0.040659X-0.259862X0.259862X0.040659X0.040659X0.259862X-0.259862X-0.040659X0*%
%ADD38RoundRect,0.155000X0.212500X0.155000X-0.212500X0.155000X-0.212500X-0.155000X0.212500X-0.155000X0*%
%ADD39RoundRect,0.155000X0.155000X-0.212500X0.155000X0.212500X-0.155000X0.212500X-0.155000X-0.212500X0*%
%ADD40R,0.900000X0.300000*%
%ADD41R,0.300000X0.900000*%
%ADD42R,3.550000X3.550000*%
%ADD43RoundRect,0.250000X-0.337500X-0.475000X0.337500X-0.475000X0.337500X0.475000X-0.337500X0.475000X0*%
%ADD44R,1.200000X1.400000*%
%ADD45RoundRect,0.160000X-0.044194X-0.270468X0.270468X0.044194X0.044194X0.270468X-0.270468X-0.044194X0*%
%ADD46RoundRect,0.155000X0.040659X0.259862X-0.259862X-0.040659X-0.040659X-0.259862X0.259862X0.040659X0*%
%ADD47RoundRect,0.160000X0.270468X-0.044194X-0.044194X0.270468X-0.270468X0.044194X0.044194X-0.270468X0*%
%ADD48RoundRect,0.155000X-0.259862X0.040659X0.040659X-0.259862X0.259862X-0.040659X-0.040659X0.259862X0*%
%ADD49R,1.400000X1.150000*%
%ADD50RoundRect,0.237500X-0.250000X-0.237500X0.250000X-0.237500X0.250000X0.237500X-0.250000X0.237500X0*%
%ADD51RoundRect,0.160000X0.026517X0.252791X-0.252791X-0.026517X-0.026517X-0.252791X0.252791X0.026517X0*%
%ADD52R,1.700000X1.100000*%
%ADD53R,0.350000X0.600000*%
%ADD54RoundRect,0.160000X-0.270468X0.044194X0.044194X-0.270468X0.270468X-0.044194X-0.044194X0.270468X0*%
%ADD55R,1.050000X0.650000*%
%ADD56RoundRect,0.237500X0.250000X0.237500X-0.250000X0.237500X-0.250000X-0.237500X0.250000X-0.237500X0*%
%ADD57R,0.711000X1.500000*%
%ADD58R,0.914000X2.000000*%
%ADD59R,1.905000X3.334000*%
%ADD60RoundRect,0.160000X-0.160000X0.222500X-0.160000X-0.222500X0.160000X-0.222500X0.160000X0.222500X0*%
%ADD61R,5.080000X1.500000*%
%ADD62R,0.500000X2.000000*%
%ADD63RoundRect,0.237500X-0.237500X0.250000X-0.237500X-0.250000X0.237500X-0.250000X0.237500X0.250000X0*%
%ADD64R,0.600000X1.200000*%
%ADD65R,3.200000X1.000000*%
%ADD66RoundRect,0.160000X0.252791X-0.026517X-0.026517X0.252791X-0.252791X0.026517X0.026517X-0.252791X0*%
G04 APERTURE END LIST*
D10*
%TO.C,R15*%
X88620000Y-89332379D02*
X88620000Y-89667621D01*
X89380000Y-89332379D02*
X89380000Y-89667621D01*
D11*
%TO.C,D4*%
X89050000Y-93265000D02*
G75*
G02*
X88950000Y-93265000I-50000J0D01*
G01*
X88950000Y-93265000D02*
G75*
G02*
X89050000Y-93265000I50000J0D01*
G01*
%TO.C,D3*%
X87550000Y-93265000D02*
G75*
G02*
X87450000Y-93265000I-50000J0D01*
G01*
X87450000Y-93265000D02*
G75*
G02*
X87550000Y-93265000I50000J0D01*
G01*
D10*
%TO.C,R12*%
X87120000Y-89332379D02*
X87120000Y-89667621D01*
X87880000Y-89332379D02*
X87880000Y-89667621D01*
%TO.C,R7*%
X83620000Y-100234879D02*
X83620000Y-100570121D01*
X84380000Y-100234879D02*
X84380000Y-100570121D01*
%TO.C,R6*%
X84380000Y-95667621D02*
X84380000Y-95332379D01*
X83620000Y-95667621D02*
X83620000Y-95332379D01*
%TO.C,H2*%
X128660000Y-83340000D02*
X130540000Y-83340000D01*
X124840000Y-83340000D02*
X122660000Y-83340000D01*
X118840000Y-83340000D02*
X116660000Y-83340000D01*
X112840000Y-83340000D02*
X110660000Y-83340000D01*
X106840000Y-83340000D02*
X104660000Y-83340000D01*
X98960000Y-83340000D02*
X100840000Y-83340000D01*
X133910000Y-88240000D02*
X133910000Y-86360000D01*
X95590000Y-88240000D02*
X95590000Y-86360000D01*
X133910000Y-92060000D02*
X133910000Y-94240000D01*
X95590000Y-92060000D02*
X95590000Y-94240000D01*
X133910000Y-98060000D02*
X133910000Y-100240000D01*
X95590000Y-98060000D02*
X95590000Y-100240000D01*
X133910000Y-105940000D02*
X133910000Y-104060000D01*
X95590000Y-105940000D02*
X95590000Y-104060000D01*
X128660000Y-108960000D02*
X130540000Y-108960000D01*
X124840000Y-108960000D02*
X122660000Y-108960000D01*
X118840000Y-108960000D02*
X116660000Y-108960000D01*
X112840000Y-108960000D02*
X110660000Y-108960000D01*
X106840000Y-108960000D02*
X104660000Y-108960000D01*
X98960000Y-108960000D02*
X100840000Y-108960000D01*
D12*
%TO.C,J4*%
X75413000Y-93030000D02*
X75413000Y-101970000D01*
X75413000Y-101970000D02*
X76350000Y-101970000D01*
X76350000Y-93030000D02*
X75413000Y-93030000D01*
X80350000Y-93030000D02*
X78550000Y-93030000D01*
X80350000Y-101970000D02*
X78550000Y-101970000D01*
D11*
X83150000Y-94300000D02*
X83150000Y-94300000D01*
X83250000Y-94300000D02*
X83250000Y-94300000D01*
D10*
%TO.C,U2*%
X85890000Y-95327500D02*
X86365000Y-95327500D01*
X85890000Y-95802500D02*
X85890000Y-95327500D01*
X85890000Y-100547500D02*
X85890000Y-100072500D01*
X86365000Y-100547500D02*
X85890000Y-100547500D01*
X90635000Y-95327500D02*
X91110000Y-95327500D01*
X91110000Y-95327500D02*
X91110000Y-95802500D01*
X91110000Y-100072500D02*
X91110000Y-100547500D01*
X91110000Y-100547500D02*
X90635000Y-100547500D01*
X91970000Y-99927500D02*
X91640000Y-99687500D01*
X91970000Y-99447500D01*
X91970000Y-99927500D01*
G36*
X91970000Y-99927500D02*
G01*
X91640000Y-99687500D01*
X91970000Y-99447500D01*
X91970000Y-99927500D01*
G37*
%TO.C,C2*%
X112177349Y-102436466D02*
X112013534Y-102272651D01*
X112686466Y-101927349D02*
X112522651Y-101763534D01*
%TO.C,C24*%
X110134165Y-87040000D02*
X110365835Y-87040000D01*
X110134165Y-87760000D02*
X110365835Y-87760000D01*
%TO.C,L6*%
X117249800Y-92740000D02*
X117450200Y-92740000D01*
X117249800Y-93460000D02*
X117450200Y-93460000D01*
%TO.C,C7*%
X126440000Y-99834165D02*
X126440000Y-100065835D01*
X127160000Y-99834165D02*
X127160000Y-100065835D01*
%TO.C,R8*%
X91234879Y-88320000D02*
X91570121Y-88320000D01*
X91234879Y-89080000D02*
X91570121Y-89080000D01*
%TO.C,C19*%
X113713534Y-90877349D02*
X113877349Y-90713534D01*
X114222651Y-91386466D02*
X114386466Y-91222651D01*
%TO.C,R5*%
X86380000Y-89332379D02*
X86380000Y-89667621D01*
X85620000Y-89332379D02*
X85620000Y-89667621D01*
%TO.C,C20*%
X102615835Y-92140000D02*
X102384165Y-92140000D01*
X102615835Y-92860000D02*
X102384165Y-92860000D01*
%TO.C,C13*%
X109390000Y-100384165D02*
X109390000Y-100615835D01*
X110110000Y-100384165D02*
X110110000Y-100615835D01*
%TO.C,C5*%
X121915835Y-95840000D02*
X121684165Y-95840000D01*
X121915835Y-96560000D02*
X121684165Y-96560000D01*
%TO.C,C35*%
X101860000Y-90865835D02*
X101860000Y-90634165D01*
X101140000Y-90865835D02*
X101140000Y-90634165D01*
%TO.C,C29*%
X83844665Y-84910000D02*
X84076335Y-84910000D01*
X83844665Y-84190000D02*
X84076335Y-84190000D01*
D13*
%TO.C,IC1*%
X105375000Y-92000000D02*
G75*
G02*
X105125000Y-92000000I-125000J0D01*
G01*
X105125000Y-92000000D02*
G75*
G02*
X105375000Y-92000000I125000J0D01*
G01*
D10*
%TO.C,C32*%
X91988748Y-89815000D02*
X92511252Y-89815000D01*
X91988748Y-91285000D02*
X92511252Y-91285000D01*
D11*
%TO.C,Y1*%
X97950000Y-86200000D02*
X97950000Y-86200000D01*
D10*
%TO.C,L7*%
X117249800Y-95140000D02*
X117450200Y-95140000D01*
X117249800Y-95860000D02*
X117450200Y-95860000D01*
%TO.C,L9*%
X123424589Y-102216294D02*
X123566294Y-102074589D01*
X123933706Y-102725411D02*
X124075411Y-102583706D01*
%TO.C,C10*%
X125577349Y-103813534D02*
X125413534Y-103977349D01*
X126086466Y-104322651D02*
X125922651Y-104486466D01*
%TO.C,R9*%
X94280000Y-88167621D02*
X94280000Y-87832379D01*
X93520000Y-88167621D02*
X93520000Y-87832379D01*
%TO.C,R11*%
X84880000Y-92167621D02*
X84880000Y-91832379D01*
X84120000Y-92167621D02*
X84120000Y-91832379D01*
%TO.C,C9*%
X117234165Y-96340000D02*
X117465835Y-96340000D01*
X117234165Y-97060000D02*
X117465835Y-97060000D01*
%TO.C,C23*%
X101865835Y-94890000D02*
X101634165Y-94890000D01*
X101865835Y-95610000D02*
X101634165Y-95610000D01*
%TO.C,L1*%
X111766294Y-99425411D02*
X111624589Y-99283706D01*
X112275411Y-98916294D02*
X112133706Y-98774589D01*
%TO.C,C4*%
X114413534Y-100072651D02*
X114577349Y-100236466D01*
X114922651Y-99563534D02*
X115086466Y-99727349D01*
%TO.C,C3*%
X112613534Y-98272651D02*
X112777349Y-98436466D01*
X113122651Y-97763534D02*
X113286466Y-97927349D01*
D11*
%TO.C,Y2*%
X103650000Y-87313000D02*
X103650000Y-87112000D01*
X105450000Y-85962000D02*
X105050000Y-85962000D01*
X105450001Y-88461999D02*
X105050001Y-88462000D01*
D12*
X106550000Y-85312001D02*
X106550000Y-85312001D01*
D11*
X106849999Y-87313000D02*
X106850000Y-87112000D01*
D10*
%TO.C,C21*%
X112913534Y-90077349D02*
X113077349Y-89913534D01*
X113422651Y-90586466D02*
X113586466Y-90422651D01*
%TO.C,R10*%
X80420276Y-104120000D02*
X80929724Y-104120000D01*
X80420276Y-105165000D02*
X80929724Y-105165000D01*
%TO.C,C16*%
X101865835Y-93690000D02*
X101634165Y-93690000D01*
X101865835Y-94410000D02*
X101634165Y-94410000D01*
%TO.C,R2*%
X124599825Y-102762773D02*
X124362773Y-102999825D01*
X125137227Y-103300175D02*
X124900175Y-103537227D01*
%TO.C,C34*%
X100890000Y-87784165D02*
X100890000Y-88015835D01*
X101610000Y-87784165D02*
X101610000Y-88015835D01*
%TO.C,C31*%
X83566665Y-105002500D02*
X83798335Y-105002500D01*
X83566665Y-104282500D02*
X83798335Y-104282500D01*
%TO.C,C11*%
X123213534Y-100527349D02*
X123377349Y-100363534D01*
X123722651Y-101036466D02*
X123886466Y-100872651D01*
D13*
%TO.C,IC4*%
X90800000Y-87650000D02*
G75*
G02*
X90550000Y-87650000I-125000J0D01*
G01*
X90550000Y-87650000D02*
G75*
G02*
X90800000Y-87650000I125000J0D01*
G01*
D10*
%TO.C,C6*%
X127234165Y-95890000D02*
X127465835Y-95890000D01*
X127234165Y-96610000D02*
X127465835Y-96610000D01*
%TO.C,L2*%
X113424589Y-101083706D02*
X113566294Y-101225411D01*
X113933706Y-100574589D02*
X114075411Y-100716294D01*
%TO.C,C27*%
X81426335Y-84910000D02*
X81194665Y-84910000D01*
X81426335Y-84190000D02*
X81194665Y-84190000D01*
%TO.C,C12*%
X85610000Y-94365835D02*
X85610000Y-94134165D01*
X84890000Y-94365835D02*
X84890000Y-94134165D01*
%TO.C,C33*%
X88433335Y-102857500D02*
X88201665Y-102857500D01*
X88433335Y-103577500D02*
X88201665Y-103577500D01*
D12*
%TO.C,Reset1*%
X82850000Y-107617500D02*
X82850000Y-106817500D01*
X79550000Y-108817500D02*
X81950000Y-108817500D01*
X79550000Y-105617500D02*
X81950000Y-105617500D01*
X78650000Y-107617500D02*
X78650000Y-106817500D01*
D11*
X77750000Y-106117500D02*
X77750000Y-106117500D01*
X77750000Y-106017500D02*
X77750000Y-106017500D01*
D10*
%TO.C,L5*%
X124649800Y-97490000D02*
X124850200Y-97490000D01*
X124649800Y-98210000D02*
X124850200Y-98210000D01*
%TO.C,C30*%
X94310000Y-85516665D02*
X94310000Y-85748335D01*
X93590000Y-85516665D02*
X93590000Y-85748335D01*
D12*
%TO.C,Boot1*%
X89417500Y-107617500D02*
X89417500Y-106817500D01*
X86117500Y-108817500D02*
X88517500Y-108817500D01*
X86117500Y-105617500D02*
X88517500Y-105617500D01*
X85217500Y-107617500D02*
X85217500Y-106817500D01*
D11*
X84317500Y-106117500D02*
X84317500Y-106117500D01*
X84317500Y-106017500D02*
X84317500Y-106017500D01*
D10*
%TO.C,R14*%
X99004724Y-90877500D02*
X98495276Y-90877500D01*
X99004724Y-91922500D02*
X98495276Y-91922500D01*
D11*
%TO.C,IC2*%
X116902000Y-99080000D02*
X116902000Y-101520000D01*
X116902000Y-101520000D02*
X117650000Y-101520000D01*
X117650000Y-99080000D02*
X116902000Y-99080000D01*
D12*
X117650000Y-103720000D02*
X117650000Y-103720000D01*
X117650000Y-103920000D02*
X117650000Y-103920000D01*
D11*
X120650000Y-101520000D02*
X121398000Y-101520000D01*
X121398000Y-99080000D02*
X120650000Y-99080000D01*
X121398000Y-101520000D02*
X121398000Y-99080000D01*
D10*
%TO.C,L3*%
X119140000Y-95449800D02*
X119140000Y-95650200D01*
X119860000Y-95449800D02*
X119860000Y-95650200D01*
%TO.C,R4*%
X86380000Y-86832379D02*
X86380000Y-87167621D01*
X85620000Y-86832379D02*
X85620000Y-87167621D01*
%TO.C,C18*%
X106590000Y-100184165D02*
X106590000Y-100415835D01*
X107310000Y-100184165D02*
X107310000Y-100415835D01*
%TO.C,J1*%
X137927500Y-99000000D02*
X137927500Y-99500000D01*
X137927500Y-99500000D02*
X138427500Y-99250000D01*
X138427500Y-99250000D02*
X137927500Y-99000000D01*
%TO.C,J2*%
X94060000Y-104390000D02*
X94110000Y-104390000D01*
X90890000Y-104390000D02*
X90940000Y-104390000D01*
X94110000Y-106910000D02*
X94110000Y-104390000D01*
X94060000Y-106910000D02*
X94110000Y-106910000D01*
X90890000Y-106910000D02*
X90890000Y-104390000D01*
X90890000Y-106910000D02*
X90940000Y-106910000D01*
X90940000Y-108240000D02*
X90940000Y-106910000D01*
%TO.C,C17*%
X110390000Y-89365835D02*
X110390000Y-89134165D01*
X111110000Y-89365835D02*
X111110000Y-89134165D01*
%TO.C,C26*%
X104634165Y-89040000D02*
X104865835Y-89040000D01*
X104634165Y-89760000D02*
X104865835Y-89760000D01*
%TO.C,C1*%
X93140000Y-98634165D02*
X93140000Y-98865835D01*
X93860000Y-98634165D02*
X93860000Y-98865835D01*
%TO.C,C25*%
X107365835Y-89040000D02*
X107134165Y-89040000D01*
X107365835Y-89760000D02*
X107134165Y-89760000D01*
%TO.C,C15*%
X109190000Y-89365835D02*
X109190000Y-89134165D01*
X109910000Y-89365835D02*
X109910000Y-89134165D01*
%TO.C,C28*%
X87145248Y-85483500D02*
X87667752Y-85483500D01*
X87145248Y-84013500D02*
X87667752Y-84013500D01*
D11*
%TO.C,D2*%
X86050000Y-93265000D02*
G75*
G02*
X85950000Y-93265000I-50000J0D01*
G01*
X85950000Y-93265000D02*
G75*
G02*
X86050000Y-93265000I50000J0D01*
G01*
D10*
%TO.C,C22*%
X114513534Y-91677349D02*
X114677349Y-91513534D01*
X115022651Y-92186466D02*
X115186466Y-92022651D01*
%TO.C,L4*%
X127249800Y-97490000D02*
X127450200Y-97490000D01*
X127249800Y-98210000D02*
X127450200Y-98210000D01*
%TO.C,C8*%
X117234165Y-93990000D02*
X117465835Y-93990000D01*
X117234165Y-94710000D02*
X117465835Y-94710000D01*
%TO.C,C14*%
X105390000Y-100184165D02*
X105390000Y-100415835D01*
X106110000Y-100184165D02*
X106110000Y-100415835D01*
%TO.C,R3*%
X107827500Y-100645276D02*
X107827500Y-101154724D01*
X108872500Y-100645276D02*
X108872500Y-101154724D01*
%TO.C,R13*%
X87997224Y-105165000D02*
X87487776Y-105165000D01*
X87997224Y-104120000D02*
X87487776Y-104120000D01*
%TO.C,L8*%
X114990000Y-95100200D02*
X114990000Y-94899800D01*
X115710000Y-95100200D02*
X115710000Y-94899800D01*
D12*
%TO.C,IC3*%
X84810500Y-87948500D02*
X81910500Y-87948500D01*
X84810500Y-87348500D02*
X84810500Y-87948500D01*
X81910500Y-87948500D02*
X81910500Y-87348500D01*
X81910500Y-87348500D02*
X84810500Y-87348500D01*
X81760500Y-89498500D02*
X81760500Y-88298500D01*
D10*
%TO.C,R1*%
X111199825Y-103487227D02*
X110962773Y-103250175D01*
X111737227Y-102949825D02*
X111500175Y-102712773D01*
%TD*%
%LPC*%
D14*
X87682309Y-94298716D02*
X87182309Y-94298716D01*
X87182309Y-94298716D02*
X87182309Y-94108240D01*
X87182309Y-94108240D02*
X87206119Y-94060621D01*
X87206119Y-94060621D02*
X87229928Y-94036811D01*
X87229928Y-94036811D02*
X87277547Y-94013002D01*
X87277547Y-94013002D02*
X87348976Y-94013002D01*
X87348976Y-94013002D02*
X87396595Y-94036811D01*
X87396595Y-94036811D02*
X87420404Y-94060621D01*
X87420404Y-94060621D02*
X87444214Y-94108240D01*
X87444214Y-94108240D02*
X87444214Y-94298716D01*
X87539452Y-93822525D02*
X87539452Y-93584430D01*
X87682309Y-93870144D02*
X87182309Y-93703478D01*
X87182309Y-93703478D02*
X87682309Y-93536811D01*
X89932309Y-92620144D02*
X90432309Y-92453478D01*
X90432309Y-92453478D02*
X89932309Y-92286811D01*
X90384690Y-91834431D02*
X90408500Y-91858240D01*
X90408500Y-91858240D02*
X90432309Y-91929669D01*
X90432309Y-91929669D02*
X90432309Y-91977288D01*
X90432309Y-91977288D02*
X90408500Y-92048716D01*
X90408500Y-92048716D02*
X90360880Y-92096335D01*
X90360880Y-92096335D02*
X90313261Y-92120145D01*
X90313261Y-92120145D02*
X90218023Y-92143954D01*
X90218023Y-92143954D02*
X90146595Y-92143954D01*
X90146595Y-92143954D02*
X90051357Y-92120145D01*
X90051357Y-92120145D02*
X90003738Y-92096335D01*
X90003738Y-92096335D02*
X89956119Y-92048716D01*
X89956119Y-92048716D02*
X89932309Y-91977288D01*
X89932309Y-91977288D02*
X89932309Y-91929669D01*
X89932309Y-91929669D02*
X89956119Y-91858240D01*
X89956119Y-91858240D02*
X89979928Y-91834431D01*
X90384690Y-91334431D02*
X90408500Y-91358240D01*
X90408500Y-91358240D02*
X90432309Y-91429669D01*
X90432309Y-91429669D02*
X90432309Y-91477288D01*
X90432309Y-91477288D02*
X90408500Y-91548716D01*
X90408500Y-91548716D02*
X90360880Y-91596335D01*
X90360880Y-91596335D02*
X90313261Y-91620145D01*
X90313261Y-91620145D02*
X90218023Y-91643954D01*
X90218023Y-91643954D02*
X90146595Y-91643954D01*
X90146595Y-91643954D02*
X90051357Y-91620145D01*
X90051357Y-91620145D02*
X90003738Y-91596335D01*
X90003738Y-91596335D02*
X89956119Y-91548716D01*
X89956119Y-91548716D02*
X89932309Y-91477288D01*
X89932309Y-91477288D02*
X89932309Y-91429669D01*
X89932309Y-91429669D02*
X89956119Y-91358240D01*
X89956119Y-91358240D02*
X89979928Y-91334431D01*
X86348976Y-94084430D02*
X86682309Y-94084430D01*
X86348976Y-94298716D02*
X86610880Y-94298716D01*
X86610880Y-94298716D02*
X86658500Y-94274906D01*
X86658500Y-94274906D02*
X86682309Y-94227287D01*
X86682309Y-94227287D02*
X86682309Y-94155859D01*
X86682309Y-94155859D02*
X86658500Y-94108240D01*
X86658500Y-94108240D02*
X86634690Y-94084430D01*
X86634690Y-93560621D02*
X86658500Y-93584430D01*
X86658500Y-93584430D02*
X86682309Y-93655859D01*
X86682309Y-93655859D02*
X86682309Y-93703478D01*
X86682309Y-93703478D02*
X86658500Y-93774906D01*
X86658500Y-93774906D02*
X86610880Y-93822525D01*
X86610880Y-93822525D02*
X86563261Y-93846335D01*
X86563261Y-93846335D02*
X86468023Y-93870144D01*
X86468023Y-93870144D02*
X86396595Y-93870144D01*
X86396595Y-93870144D02*
X86301357Y-93846335D01*
X86301357Y-93846335D02*
X86253738Y-93822525D01*
X86253738Y-93822525D02*
X86206119Y-93774906D01*
X86206119Y-93774906D02*
X86182309Y-93703478D01*
X86182309Y-93703478D02*
X86182309Y-93655859D01*
X86182309Y-93655859D02*
X86206119Y-93584430D01*
X86206119Y-93584430D02*
X86229928Y-93560621D01*
X86070331Y-109682309D02*
X86070331Y-109182309D01*
X86070331Y-109372785D02*
X86165569Y-109348976D01*
X86165569Y-109348976D02*
X86356045Y-109348976D01*
X86356045Y-109348976D02*
X86451283Y-109372785D01*
X86451283Y-109372785D02*
X86498902Y-109396595D01*
X86498902Y-109396595D02*
X86546521Y-109444214D01*
X86546521Y-109444214D02*
X86546521Y-109587071D01*
X86546521Y-109587071D02*
X86498902Y-109634690D01*
X86498902Y-109634690D02*
X86451283Y-109658500D01*
X86451283Y-109658500D02*
X86356045Y-109682309D01*
X86356045Y-109682309D02*
X86165569Y-109682309D01*
X86165569Y-109682309D02*
X86070331Y-109658500D01*
X87117950Y-109682309D02*
X87022712Y-109658500D01*
X87022712Y-109658500D02*
X86975093Y-109634690D01*
X86975093Y-109634690D02*
X86927474Y-109587071D01*
X86927474Y-109587071D02*
X86927474Y-109444214D01*
X86927474Y-109444214D02*
X86975093Y-109396595D01*
X86975093Y-109396595D02*
X87022712Y-109372785D01*
X87022712Y-109372785D02*
X87117950Y-109348976D01*
X87117950Y-109348976D02*
X87260807Y-109348976D01*
X87260807Y-109348976D02*
X87356045Y-109372785D01*
X87356045Y-109372785D02*
X87403664Y-109396595D01*
X87403664Y-109396595D02*
X87451283Y-109444214D01*
X87451283Y-109444214D02*
X87451283Y-109587071D01*
X87451283Y-109587071D02*
X87403664Y-109634690D01*
X87403664Y-109634690D02*
X87356045Y-109658500D01*
X87356045Y-109658500D02*
X87260807Y-109682309D01*
X87260807Y-109682309D02*
X87117950Y-109682309D01*
X88022712Y-109682309D02*
X87927474Y-109658500D01*
X87927474Y-109658500D02*
X87879855Y-109634690D01*
X87879855Y-109634690D02*
X87832236Y-109587071D01*
X87832236Y-109587071D02*
X87832236Y-109444214D01*
X87832236Y-109444214D02*
X87879855Y-109396595D01*
X87879855Y-109396595D02*
X87927474Y-109372785D01*
X87927474Y-109372785D02*
X88022712Y-109348976D01*
X88022712Y-109348976D02*
X88165569Y-109348976D01*
X88165569Y-109348976D02*
X88260807Y-109372785D01*
X88260807Y-109372785D02*
X88308426Y-109396595D01*
X88308426Y-109396595D02*
X88356045Y-109444214D01*
X88356045Y-109444214D02*
X88356045Y-109587071D01*
X88356045Y-109587071D02*
X88308426Y-109634690D01*
X88308426Y-109634690D02*
X88260807Y-109658500D01*
X88260807Y-109658500D02*
X88165569Y-109682309D01*
X88165569Y-109682309D02*
X88022712Y-109682309D01*
X88641760Y-109348976D02*
X89022712Y-109348976D01*
X88784617Y-109182309D02*
X88784617Y-109610880D01*
X88784617Y-109610880D02*
X88832236Y-109658500D01*
X88832236Y-109658500D02*
X88927474Y-109682309D01*
X88927474Y-109682309D02*
X89022712Y-109682309D01*
X79820331Y-109682309D02*
X79820331Y-109348976D01*
X79820331Y-109444214D02*
X79867950Y-109396595D01*
X79867950Y-109396595D02*
X79915569Y-109372785D01*
X79915569Y-109372785D02*
X80010807Y-109348976D01*
X80010807Y-109348976D02*
X80106045Y-109348976D01*
X80391760Y-109658500D02*
X80486998Y-109682309D01*
X80486998Y-109682309D02*
X80677474Y-109682309D01*
X80677474Y-109682309D02*
X80772712Y-109658500D01*
X80772712Y-109658500D02*
X80820331Y-109610880D01*
X80820331Y-109610880D02*
X80820331Y-109587071D01*
X80820331Y-109587071D02*
X80772712Y-109539452D01*
X80772712Y-109539452D02*
X80677474Y-109515642D01*
X80677474Y-109515642D02*
X80534617Y-109515642D01*
X80534617Y-109515642D02*
X80439379Y-109491833D01*
X80439379Y-109491833D02*
X80391760Y-109444214D01*
X80391760Y-109444214D02*
X80391760Y-109420404D01*
X80391760Y-109420404D02*
X80439379Y-109372785D01*
X80439379Y-109372785D02*
X80534617Y-109348976D01*
X80534617Y-109348976D02*
X80677474Y-109348976D01*
X80677474Y-109348976D02*
X80772712Y-109372785D01*
X81106046Y-109348976D02*
X81486998Y-109348976D01*
X81248903Y-109182309D02*
X81248903Y-109610880D01*
X81248903Y-109610880D02*
X81296522Y-109658500D01*
X81296522Y-109658500D02*
X81391760Y-109682309D01*
X81391760Y-109682309D02*
X81486998Y-109682309D01*
D15*
G36*
X137708429Y-90383094D02*
G01*
X137734523Y-90430062D01*
X137734523Y-90433636D01*
X137408333Y-90492351D01*
X137408333Y-90430062D01*
X137434427Y-90383093D01*
X137492288Y-90357057D01*
X137650569Y-90357057D01*
X137708429Y-90383094D01*
G37*
G36*
X139803667Y-90383094D02*
G01*
X139829761Y-90430062D01*
X139829761Y-90433636D01*
X139503571Y-90492351D01*
X139503571Y-90430062D01*
X139529665Y-90383093D01*
X139587526Y-90357057D01*
X139745807Y-90357057D01*
X139803667Y-90383094D01*
G37*
G36*
X138472619Y-89341757D02*
G01*
X138436284Y-89358108D01*
X138230384Y-89358108D01*
X138172522Y-89332070D01*
X138146429Y-89285101D01*
X138146429Y-89238256D01*
X138172523Y-89191287D01*
X138230384Y-89165251D01*
X138452381Y-89165251D01*
X138467013Y-89163810D01*
X138468076Y-89163369D01*
X138469224Y-89163335D01*
X138472619Y-89162192D01*
X138472619Y-89341757D01*
G37*
G36*
X140792606Y-91057057D02*
G01*
X136301190Y-91057057D01*
X136301190Y-90453485D01*
X136401190Y-90453485D01*
X136401190Y-90710628D01*
X136402631Y-90725260D01*
X136404287Y-90729259D01*
X136404782Y-90733561D01*
X136410628Y-90747051D01*
X136458247Y-90832765D01*
X136462880Y-90839461D01*
X136463724Y-90841229D01*
X136465292Y-90842947D01*
X136466613Y-90844856D01*
X136468143Y-90846070D01*
X136473636Y-90852089D01*
X136521255Y-90894946D01*
X136526555Y-90898848D01*
X136527899Y-90900276D01*
X136530594Y-90901822D01*
X136533095Y-90903664D01*
X136534941Y-90904317D01*
X136540651Y-90907594D01*
X136635889Y-90950451D01*
X136649824Y-90955142D01*
X136650973Y-90955176D01*
X136652034Y-90955616D01*
X136666666Y-90957057D01*
X136857142Y-90957057D01*
X136871774Y-90955616D01*
X136872834Y-90955176D01*
X136873985Y-90955142D01*
X136887919Y-90950451D01*
X136983158Y-90907594D01*
X136995910Y-90900275D01*
X137015969Y-90878968D01*
X137026347Y-90851607D01*
X137025465Y-90822357D01*
X137013456Y-90795671D01*
X136992149Y-90775612D01*
X136964788Y-90765233D01*
X136935538Y-90766115D01*
X136921603Y-90770806D01*
X136841045Y-90807057D01*
X136682764Y-90807057D01*
X136612892Y-90775615D01*
X136583290Y-90748972D01*
X136551190Y-90691193D01*
X136551190Y-90472919D01*
X136583290Y-90415139D01*
X136588302Y-90410628D01*
X137258333Y-90410628D01*
X137258333Y-90753485D01*
X137259774Y-90768117D01*
X137261431Y-90772117D01*
X137261925Y-90776417D01*
X137267771Y-90789908D01*
X137315390Y-90875623D01*
X137316951Y-90877879D01*
X137317364Y-90878968D01*
X137318647Y-90880331D01*
X137323755Y-90887714D01*
X137331046Y-90893502D01*
X137337423Y-90900276D01*
X137345204Y-90904741D01*
X137346675Y-90905909D01*
X137347797Y-90906229D01*
X137350175Y-90907594D01*
X137445413Y-90950451D01*
X137459348Y-90955142D01*
X137460497Y-90955176D01*
X137461558Y-90955616D01*
X137476190Y-90957057D01*
X137666666Y-90957057D01*
X137681298Y-90955616D01*
X137682358Y-90955176D01*
X137683509Y-90955142D01*
X137697443Y-90950451D01*
X137792682Y-90907594D01*
X137805434Y-90900275D01*
X137825493Y-90878968D01*
X137835871Y-90851607D01*
X137834989Y-90822357D01*
X137822980Y-90795671D01*
X137801673Y-90775612D01*
X137774312Y-90765233D01*
X137745062Y-90766115D01*
X137731127Y-90770806D01*
X137650569Y-90807057D01*
X137492288Y-90807057D01*
X137434426Y-90781019D01*
X137408333Y-90734050D01*
X137408333Y-90644762D01*
X137822810Y-90570156D01*
X137823709Y-90569901D01*
X137824155Y-90569901D01*
X137825122Y-90569500D01*
X137836955Y-90566145D01*
X137843739Y-90561788D01*
X137851191Y-90558702D01*
X137855935Y-90553957D01*
X137861579Y-90550334D01*
X137866180Y-90543712D01*
X137871883Y-90538010D01*
X137874450Y-90531811D01*
X137878278Y-90526304D01*
X137879995Y-90518425D01*
X137883082Y-90510974D01*
X137884286Y-90498738D01*
X137884511Y-90497711D01*
X137884431Y-90497270D01*
X137884523Y-90496342D01*
X137884523Y-90410628D01*
X137883082Y-90395996D01*
X137881425Y-90391996D01*
X137880931Y-90387695D01*
X137875085Y-90374204D01*
X137827466Y-90288491D01*
X137825907Y-90286238D01*
X137825493Y-90285146D01*
X137824204Y-90283777D01*
X137823014Y-90282057D01*
X138163095Y-90282057D01*
X138163095Y-90882057D01*
X138164536Y-90896689D01*
X138175735Y-90923725D01*
X138196427Y-90944417D01*
X138223463Y-90955616D01*
X138252727Y-90955616D01*
X138279763Y-90944417D01*
X138300455Y-90923725D01*
X138311654Y-90896689D01*
X138313095Y-90882057D01*
X138313095Y-90295589D01*
X138545278Y-90295589D01*
X138549335Y-90309720D01*
X138787430Y-90909721D01*
X138794167Y-90922789D01*
X138794959Y-90923605D01*
X138795411Y-90924651D01*
X138805122Y-90934076D01*
X138814548Y-90943788D01*
X138815593Y-90944239D01*
X138816410Y-90945032D01*
X138828984Y-90950021D01*
X138841413Y-90955389D01*
X138842551Y-90955406D01*
X138843610Y-90955826D01*
X138857124Y-90955624D01*
X138870674Y-90955827D01*
X138871734Y-90955405D01*
X138872871Y-90955389D01*
X138885271Y-90950034D01*
X138897874Y-90945033D01*
X138898692Y-90944238D01*
X138899736Y-90943788D01*
X138909153Y-90934084D01*
X138918873Y-90924651D01*
X138919324Y-90923605D01*
X138920117Y-90922789D01*
X138926854Y-90909720D01*
X139124906Y-90410628D01*
X139353571Y-90410628D01*
X139353571Y-90753485D01*
X139355012Y-90768117D01*
X139356669Y-90772117D01*
X139357163Y-90776417D01*
X139363009Y-90789908D01*
X139410628Y-90875623D01*
X139412189Y-90877879D01*
X139412602Y-90878968D01*
X139413885Y-90880331D01*
X139418993Y-90887714D01*
X139426284Y-90893502D01*
X139432661Y-90900276D01*
X139440442Y-90904741D01*
X139441913Y-90905909D01*
X139443035Y-90906229D01*
X139445413Y-90907594D01*
X139540651Y-90950451D01*
X139554586Y-90955142D01*
X139555735Y-90955176D01*
X139556796Y-90955616D01*
X139571428Y-90957057D01*
X139761904Y-90957057D01*
X139776536Y-90955616D01*
X139777596Y-90955176D01*
X139778747Y-90955142D01*
X139792681Y-90950451D01*
X139887920Y-90907594D01*
X139900672Y-90900275D01*
X139920731Y-90878968D01*
X139931109Y-90851607D01*
X139930227Y-90822357D01*
X139918218Y-90795671D01*
X139896911Y-90775612D01*
X139869550Y-90765233D01*
X139840300Y-90766115D01*
X139826365Y-90770806D01*
X139745807Y-90807057D01*
X139587526Y-90807057D01*
X139529664Y-90781019D01*
X139503571Y-90734050D01*
X139503571Y-90644762D01*
X139918048Y-90570156D01*
X139918947Y-90569901D01*
X139919393Y-90569901D01*
X139920360Y-90569500D01*
X139932193Y-90566145D01*
X139938977Y-90561788D01*
X139946429Y-90558702D01*
X139951173Y-90553957D01*
X139956817Y-90550334D01*
X139961418Y-90543712D01*
X139967121Y-90538010D01*
X139969688Y-90531811D01*
X139973516Y-90526304D01*
X139975233Y-90518425D01*
X139978320Y-90510974D01*
X139979524Y-90498738D01*
X139979749Y-90497711D01*
X139979669Y-90497270D01*
X139979761Y-90496342D01*
X139979761Y-90410628D01*
X139978320Y-90395996D01*
X139976663Y-90391996D01*
X139976169Y-90387695D01*
X139970323Y-90374204D01*
X139922704Y-90288491D01*
X139921145Y-90286238D01*
X139920731Y-90285146D01*
X139919442Y-90283777D01*
X139918252Y-90282057D01*
X140258333Y-90282057D01*
X140258333Y-90882057D01*
X140259774Y-90896689D01*
X140270973Y-90923725D01*
X140291665Y-90944417D01*
X140318701Y-90955616D01*
X140347965Y-90955616D01*
X140375001Y-90944417D01*
X140395693Y-90923725D01*
X140406892Y-90896689D01*
X140408333Y-90882057D01*
X140408333Y-90472919D01*
X140440433Y-90415139D01*
X140470033Y-90388499D01*
X140539907Y-90357057D01*
X140619047Y-90357057D01*
X140633679Y-90355616D01*
X140660715Y-90344417D01*
X140681407Y-90323725D01*
X140692606Y-90296689D01*
X140692606Y-90267425D01*
X140681407Y-90240389D01*
X140660715Y-90219697D01*
X140633679Y-90208498D01*
X140619047Y-90207057D01*
X140523809Y-90207057D01*
X140509177Y-90208498D01*
X140508116Y-90208937D01*
X140506967Y-90208972D01*
X140493032Y-90213663D01*
X140401655Y-90254782D01*
X140395693Y-90240389D01*
X140375001Y-90219697D01*
X140347965Y-90208498D01*
X140318701Y-90208498D01*
X140291665Y-90219697D01*
X140270973Y-90240389D01*
X140259774Y-90267425D01*
X140258333Y-90282057D01*
X139918252Y-90282057D01*
X139914338Y-90276400D01*
X139907051Y-90270615D01*
X139900672Y-90263839D01*
X139892888Y-90259371D01*
X139891419Y-90258205D01*
X139890297Y-90257884D01*
X139887920Y-90256520D01*
X139792681Y-90213663D01*
X139778747Y-90208972D01*
X139777596Y-90208937D01*
X139776536Y-90208498D01*
X139761904Y-90207057D01*
X139571428Y-90207057D01*
X139556796Y-90208498D01*
X139555735Y-90208937D01*
X139554586Y-90208972D01*
X139540651Y-90213663D01*
X139445413Y-90256520D01*
X139443035Y-90257884D01*
X139441913Y-90258205D01*
X139440442Y-90259372D01*
X139432661Y-90263838D01*
X139426282Y-90270614D01*
X139418994Y-90276400D01*
X139413886Y-90283781D01*
X139412602Y-90285146D01*
X139412188Y-90286235D01*
X139410628Y-90288491D01*
X139363009Y-90374205D01*
X139357163Y-90387695D01*
X139356668Y-90391996D01*
X139355012Y-90395996D01*
X139353571Y-90410628D01*
X139124906Y-90410628D01*
X139164949Y-90309720D01*
X139169006Y-90295588D01*
X139168569Y-90266328D01*
X139156968Y-90239463D01*
X139135969Y-90219081D01*
X139108769Y-90208287D01*
X139079508Y-90208725D01*
X139052643Y-90220326D01*
X139032262Y-90241325D01*
X139025525Y-90254393D01*
X138857141Y-90678719D01*
X138688759Y-90254394D01*
X138682022Y-90241325D01*
X138661641Y-90220326D01*
X138634776Y-90208725D01*
X138605515Y-90208288D01*
X138578315Y-90219082D01*
X138557316Y-90239463D01*
X138545715Y-90266328D01*
X138545278Y-90295589D01*
X138313095Y-90295589D01*
X138313095Y-90282057D01*
X138311654Y-90267425D01*
X138300455Y-90240389D01*
X138279763Y-90219697D01*
X138252727Y-90208498D01*
X138223463Y-90208498D01*
X138196427Y-90219697D01*
X138175735Y-90240389D01*
X138164536Y-90267425D01*
X138163095Y-90282057D01*
X137823014Y-90282057D01*
X137819100Y-90276400D01*
X137811813Y-90270615D01*
X137805434Y-90263839D01*
X137797650Y-90259371D01*
X137796181Y-90258205D01*
X137795059Y-90257884D01*
X137792682Y-90256520D01*
X137697443Y-90213663D01*
X137683509Y-90208972D01*
X137682358Y-90208937D01*
X137681298Y-90208498D01*
X137666666Y-90207057D01*
X137476190Y-90207057D01*
X137461558Y-90208498D01*
X137460497Y-90208937D01*
X137459348Y-90208972D01*
X137445413Y-90213663D01*
X137350175Y-90256520D01*
X137347797Y-90257884D01*
X137346675Y-90258205D01*
X137345204Y-90259372D01*
X137337423Y-90263838D01*
X137331044Y-90270614D01*
X137323756Y-90276400D01*
X137318648Y-90283781D01*
X137317364Y-90285146D01*
X137316950Y-90286235D01*
X137315390Y-90288491D01*
X137267771Y-90374205D01*
X137261925Y-90387695D01*
X137261430Y-90391996D01*
X137259774Y-90395996D01*
X137258333Y-90410628D01*
X136588302Y-90410628D01*
X136612890Y-90388499D01*
X136682764Y-90357057D01*
X136841045Y-90357057D01*
X136921603Y-90393308D01*
X136935538Y-90397999D01*
X136964788Y-90398881D01*
X136992149Y-90388502D01*
X137013456Y-90368443D01*
X137025465Y-90341757D01*
X137026347Y-90312507D01*
X137015969Y-90285146D01*
X136995910Y-90263839D01*
X136983158Y-90256520D01*
X136887919Y-90213663D01*
X136873985Y-90208972D01*
X136872834Y-90208937D01*
X136871774Y-90208498D01*
X136857142Y-90207057D01*
X136666666Y-90207057D01*
X136652034Y-90208498D01*
X136650973Y-90208937D01*
X136649824Y-90208972D01*
X136635889Y-90213663D01*
X136540651Y-90256520D01*
X136534939Y-90259797D01*
X136533096Y-90260450D01*
X136530597Y-90262289D01*
X136527899Y-90263838D01*
X136526554Y-90265265D01*
X136521256Y-90269167D01*
X136473637Y-90312024D01*
X136468144Y-90318040D01*
X136466613Y-90319257D01*
X136465291Y-90321166D01*
X136463725Y-90322883D01*
X136462882Y-90324648D01*
X136458247Y-90331348D01*
X136410628Y-90417062D01*
X136404782Y-90430552D01*
X136404287Y-90434853D01*
X136402631Y-90438853D01*
X136401190Y-90453485D01*
X136301190Y-90453485D01*
X136301190Y-90014169D01*
X138116250Y-90014169D01*
X138116815Y-90024914D01*
X138116250Y-90035659D01*
X138117578Y-90039413D01*
X138117788Y-90043391D01*
X138122422Y-90053102D01*
X138126012Y-90063246D01*
X138128675Y-90066206D01*
X138130392Y-90069802D01*
X138140304Y-90080661D01*
X138187923Y-90123518D01*
X138192015Y-90126530D01*
X138193207Y-90127855D01*
X138194931Y-90128678D01*
X138195092Y-90128796D01*
X138196427Y-90130131D01*
X138197520Y-90130583D01*
X138199763Y-90132235D01*
X138209906Y-90135824D01*
X138219618Y-90140459D01*
X138221613Y-90140564D01*
X138223463Y-90141330D01*
X138225465Y-90141330D01*
X138227350Y-90141997D01*
X138238095Y-90141431D01*
X138248840Y-90141997D01*
X138250725Y-90141330D01*
X138252727Y-90141330D01*
X138254575Y-90140564D01*
X138256573Y-90140459D01*
X138266286Y-90135823D01*
X138276427Y-90132235D01*
X138278669Y-90130583D01*
X138279763Y-90130131D01*
X138281097Y-90128796D01*
X138281258Y-90128678D01*
X138282983Y-90127855D01*
X138284174Y-90126530D01*
X138288267Y-90123518D01*
X138335886Y-90080661D01*
X138345798Y-90069802D01*
X138347513Y-90066207D01*
X138350178Y-90063247D01*
X138353768Y-90053100D01*
X138358402Y-90043391D01*
X138358611Y-90039413D01*
X138359940Y-90035659D01*
X138359374Y-90024914D01*
X138359940Y-90014169D01*
X138358611Y-90010414D01*
X138358402Y-90006437D01*
X138353768Y-89996727D01*
X138350178Y-89986581D01*
X138347513Y-89983620D01*
X138345798Y-89980026D01*
X138335886Y-89969167D01*
X138288267Y-89926310D01*
X138284174Y-89923297D01*
X138282983Y-89921973D01*
X138281258Y-89921149D01*
X138281097Y-89921031D01*
X138279763Y-89919697D01*
X138278669Y-89919244D01*
X138276427Y-89917593D01*
X138266286Y-89914004D01*
X138256573Y-89909369D01*
X138254575Y-89909263D01*
X138252727Y-89908498D01*
X138250725Y-89908498D01*
X138248840Y-89907831D01*
X138238095Y-89908396D01*
X138227350Y-89907831D01*
X138225465Y-89908498D01*
X138223463Y-89908498D01*
X138221613Y-89909263D01*
X138219618Y-89909369D01*
X138209906Y-89914003D01*
X138199763Y-89917593D01*
X138197520Y-89919244D01*
X138196427Y-89919697D01*
X138195092Y-89921031D01*
X138194931Y-89921149D01*
X138193207Y-89921973D01*
X138192015Y-89923297D01*
X138187923Y-89926310D01*
X138140304Y-89969167D01*
X138130392Y-89980026D01*
X138128675Y-89983621D01*
X138126012Y-89986582D01*
X138122422Y-89996725D01*
X138117788Y-90006437D01*
X138117578Y-90010414D01*
X138116250Y-90014169D01*
X136301190Y-90014169D01*
X136301190Y-88518476D01*
X136521679Y-88518476D01*
X136521679Y-88547740D01*
X136532878Y-88574776D01*
X136553570Y-88595468D01*
X136580606Y-88606667D01*
X136595238Y-88608108D01*
X136805952Y-88608108D01*
X136805952Y-89433108D01*
X136807393Y-89447740D01*
X136818592Y-89474776D01*
X136839284Y-89495468D01*
X136866320Y-89506667D01*
X136895584Y-89506667D01*
X136922620Y-89495468D01*
X136943312Y-89474776D01*
X136954511Y-89447740D01*
X136955952Y-89433108D01*
X136955952Y-88833108D01*
X137425000Y-88833108D01*
X137425000Y-89433108D01*
X137426441Y-89447740D01*
X137437640Y-89474776D01*
X137458332Y-89495468D01*
X137485368Y-89506667D01*
X137514632Y-89506667D01*
X137541668Y-89495468D01*
X137562360Y-89474776D01*
X137573559Y-89447740D01*
X137575000Y-89433108D01*
X137575000Y-89218822D01*
X137996429Y-89218822D01*
X137996429Y-89304536D01*
X137997870Y-89319168D01*
X137999527Y-89323168D01*
X138000021Y-89327468D01*
X138005867Y-89340959D01*
X138053486Y-89426674D01*
X138055047Y-89428930D01*
X138055460Y-89430019D01*
X138056743Y-89431382D01*
X138061851Y-89438765D01*
X138069142Y-89444553D01*
X138075519Y-89451327D01*
X138083300Y-89455792D01*
X138084771Y-89456960D01*
X138085893Y-89457280D01*
X138088271Y-89458645D01*
X138183509Y-89501502D01*
X138197444Y-89506193D01*
X138198593Y-89506227D01*
X138199654Y-89506667D01*
X138214286Y-89508108D01*
X138452381Y-89508108D01*
X138467013Y-89506667D01*
X138468073Y-89506227D01*
X138469224Y-89506193D01*
X138483158Y-89501502D01*
X138503038Y-89492555D01*
X138505951Y-89495468D01*
X138532987Y-89506667D01*
X138562251Y-89506667D01*
X138589287Y-89495468D01*
X138609979Y-89474776D01*
X138621178Y-89447740D01*
X138622619Y-89433108D01*
X138622619Y-88961679D01*
X138621178Y-88947047D01*
X138619521Y-88943047D01*
X138619027Y-88938746D01*
X138613181Y-88925255D01*
X138565562Y-88839542D01*
X138564003Y-88837289D01*
X138563589Y-88836197D01*
X138562300Y-88834828D01*
X138561110Y-88833108D01*
X138948810Y-88833108D01*
X138948810Y-89433108D01*
X138950251Y-89447740D01*
X138961450Y-89474776D01*
X138982142Y-89495468D01*
X139009178Y-89506667D01*
X139038442Y-89506667D01*
X139065478Y-89495468D01*
X139086170Y-89474776D01*
X139097369Y-89447740D01*
X139098810Y-89433108D01*
X139098810Y-88952223D01*
X139112891Y-88939550D01*
X139182765Y-88908108D01*
X139293427Y-88908108D01*
X139351287Y-88934145D01*
X139377381Y-88981113D01*
X139377381Y-89433108D01*
X139378822Y-89447740D01*
X139390021Y-89474776D01*
X139410713Y-89495468D01*
X139437749Y-89506667D01*
X139467013Y-89506667D01*
X139494049Y-89495468D01*
X139514741Y-89474776D01*
X139525940Y-89447740D01*
X139527381Y-89433108D01*
X139527381Y-88961679D01*
X139805953Y-88961679D01*
X139805953Y-89004536D01*
X139807394Y-89019168D01*
X139809051Y-89023168D01*
X139809545Y-89027468D01*
X139815391Y-89040959D01*
X139863010Y-89126674D01*
X139864571Y-89128930D01*
X139864984Y-89130019D01*
X139866267Y-89131382D01*
X139871375Y-89138765D01*
X139878666Y-89144553D01*
X139885043Y-89151327D01*
X139892824Y-89155792D01*
X139894295Y-89156960D01*
X139895417Y-89157280D01*
X139897795Y-89158645D01*
X139993033Y-89201502D01*
X140006968Y-89206193D01*
X140008117Y-89206227D01*
X140009178Y-89206667D01*
X140023810Y-89208108D01*
X140150570Y-89208108D01*
X140208430Y-89234145D01*
X140234524Y-89281113D01*
X140234524Y-89285101D01*
X140208430Y-89332071D01*
X140150570Y-89358108D01*
X139992289Y-89358108D01*
X139911730Y-89321857D01*
X139897796Y-89317166D01*
X139868545Y-89316285D01*
X139841185Y-89326663D01*
X139819877Y-89346722D01*
X139807868Y-89373408D01*
X139806987Y-89402659D01*
X139817365Y-89430019D01*
X139837424Y-89451327D01*
X139850176Y-89458645D01*
X139945414Y-89501502D01*
X139959349Y-89506193D01*
X139960498Y-89506227D01*
X139961559Y-89506667D01*
X139976191Y-89508108D01*
X140166667Y-89508108D01*
X140181299Y-89506667D01*
X140182359Y-89506227D01*
X140183510Y-89506193D01*
X140197444Y-89501502D01*
X140292683Y-89458645D01*
X140295060Y-89457280D01*
X140296182Y-89456960D01*
X140297651Y-89455793D01*
X140305435Y-89451326D01*
X140311814Y-89444549D01*
X140319101Y-89438765D01*
X140324205Y-89431387D01*
X140325494Y-89430019D01*
X140325908Y-89428926D01*
X140327467Y-89426674D01*
X140375086Y-89340959D01*
X140380932Y-89327469D01*
X140381426Y-89323167D01*
X140383083Y-89319168D01*
X140384524Y-89304536D01*
X140384524Y-89261679D01*
X140383083Y-89247047D01*
X140381426Y-89243047D01*
X140380932Y-89238746D01*
X140375086Y-89225255D01*
X140327467Y-89139542D01*
X140325908Y-89137289D01*
X140325494Y-89136197D01*
X140324205Y-89134828D01*
X140319101Y-89127451D01*
X140311814Y-89121666D01*
X140305435Y-89114890D01*
X140297651Y-89110422D01*
X140296182Y-89109256D01*
X140295060Y-89108935D01*
X140292683Y-89107571D01*
X140197444Y-89064714D01*
X140183510Y-89060023D01*
X140182359Y-89059988D01*
X140181299Y-89059549D01*
X140166667Y-89058108D01*
X140039908Y-89058108D01*
X139982046Y-89032070D01*
X139955953Y-88985101D01*
X139955953Y-88981113D01*
X139982047Y-88934144D01*
X140039908Y-88908108D01*
X140150570Y-88908108D01*
X140231128Y-88944359D01*
X140245063Y-88949050D01*
X140274313Y-88949932D01*
X140301674Y-88939553D01*
X140322981Y-88919494D01*
X140334990Y-88892808D01*
X140335872Y-88863558D01*
X140325494Y-88836197D01*
X140305435Y-88814890D01*
X140292683Y-88807571D01*
X140197444Y-88764714D01*
X140183510Y-88760023D01*
X140182359Y-88759988D01*
X140181299Y-88759549D01*
X140166667Y-88758108D01*
X140023810Y-88758108D01*
X140009178Y-88759549D01*
X140008117Y-88759988D01*
X140006968Y-88760023D01*
X139993033Y-88764714D01*
X139897795Y-88807571D01*
X139895417Y-88808935D01*
X139894295Y-88809256D01*
X139892824Y-88810423D01*
X139885043Y-88814889D01*
X139878664Y-88821665D01*
X139871376Y-88827451D01*
X139866268Y-88834832D01*
X139864984Y-88836197D01*
X139864570Y-88837286D01*
X139863010Y-88839542D01*
X139815391Y-88925256D01*
X139809545Y-88938746D01*
X139809050Y-88943047D01*
X139807394Y-88947047D01*
X139805953Y-88961679D01*
X139527381Y-88961679D01*
X139525940Y-88947047D01*
X139524283Y-88943047D01*
X139523789Y-88938746D01*
X139517943Y-88925255D01*
X139470324Y-88839542D01*
X139468765Y-88837289D01*
X139468351Y-88836197D01*
X139467062Y-88834828D01*
X139461958Y-88827451D01*
X139454671Y-88821666D01*
X139448292Y-88814890D01*
X139440508Y-88810422D01*
X139439039Y-88809256D01*
X139437917Y-88808935D01*
X139435540Y-88807571D01*
X139340301Y-88764714D01*
X139326367Y-88760023D01*
X139325216Y-88759988D01*
X139324156Y-88759549D01*
X139309524Y-88758108D01*
X139166667Y-88758108D01*
X139152035Y-88759549D01*
X139150974Y-88759988D01*
X139149825Y-88760023D01*
X139135890Y-88764714D01*
X139083168Y-88788438D01*
X139065478Y-88770748D01*
X139038442Y-88759549D01*
X139009178Y-88759549D01*
X138982142Y-88770748D01*
X138961450Y-88791440D01*
X138950251Y-88818476D01*
X138948810Y-88833108D01*
X138561110Y-88833108D01*
X138557196Y-88827451D01*
X138549909Y-88821666D01*
X138543530Y-88814890D01*
X138535746Y-88810422D01*
X138534277Y-88809256D01*
X138533155Y-88808935D01*
X138530778Y-88807571D01*
X138435539Y-88764714D01*
X138421605Y-88760023D01*
X138420454Y-88759988D01*
X138419394Y-88759549D01*
X138404762Y-88758108D01*
X138214286Y-88758108D01*
X138199654Y-88759549D01*
X138198593Y-88759988D01*
X138197444Y-88760023D01*
X138183509Y-88764714D01*
X138088271Y-88807571D01*
X138075519Y-88814889D01*
X138055460Y-88836197D01*
X138045082Y-88863557D01*
X138045963Y-88892808D01*
X138057972Y-88919494D01*
X138079280Y-88939553D01*
X138106640Y-88949931D01*
X138135891Y-88949050D01*
X138149825Y-88944359D01*
X138230384Y-88908108D01*
X138388665Y-88908108D01*
X138446525Y-88934145D01*
X138472619Y-88981113D01*
X138472619Y-88998899D01*
X138436283Y-89015251D01*
X138214286Y-89015251D01*
X138199654Y-89016692D01*
X138198593Y-89017131D01*
X138197444Y-89017166D01*
X138183509Y-89021857D01*
X138088271Y-89064714D01*
X138085893Y-89066078D01*
X138084771Y-89066399D01*
X138083300Y-89067566D01*
X138075519Y-89072032D01*
X138069140Y-89078808D01*
X138061852Y-89084594D01*
X138056744Y-89091975D01*
X138055460Y-89093340D01*
X138055046Y-89094429D01*
X138053486Y-89096685D01*
X138005867Y-89182399D01*
X138000021Y-89195889D01*
X137999526Y-89200190D01*
X137997870Y-89204190D01*
X137996429Y-89218822D01*
X137575000Y-89218822D01*
X137575000Y-89023970D01*
X137607100Y-88966190D01*
X137636700Y-88939550D01*
X137706574Y-88908108D01*
X137785714Y-88908108D01*
X137800346Y-88906667D01*
X137827382Y-88895468D01*
X137848074Y-88874776D01*
X137859273Y-88847740D01*
X137859273Y-88818476D01*
X137848074Y-88791440D01*
X137827382Y-88770748D01*
X137800346Y-88759549D01*
X137785714Y-88758108D01*
X137690476Y-88758108D01*
X137675844Y-88759549D01*
X137674783Y-88759988D01*
X137673634Y-88760023D01*
X137659699Y-88764714D01*
X137568322Y-88805833D01*
X137562360Y-88791440D01*
X137541668Y-88770748D01*
X137514632Y-88759549D01*
X137485368Y-88759549D01*
X137458332Y-88770748D01*
X137437640Y-88791440D01*
X137426441Y-88818476D01*
X137425000Y-88833108D01*
X136955952Y-88833108D01*
X136955952Y-88608108D01*
X137166666Y-88608108D01*
X137181298Y-88606667D01*
X137208334Y-88595468D01*
X137229026Y-88574776D01*
X137240225Y-88547740D01*
X137240225Y-88518476D01*
X137229026Y-88491440D01*
X137208334Y-88470748D01*
X137181298Y-88459549D01*
X137166666Y-88458108D01*
X136595238Y-88458108D01*
X136580606Y-88459549D01*
X136553570Y-88470748D01*
X136532878Y-88491440D01*
X136521679Y-88518476D01*
X136301190Y-88518476D01*
X136301190Y-87631643D01*
X136616100Y-87631643D01*
X136616750Y-87641302D01*
X136616100Y-87650961D01*
X136617724Y-87655775D01*
X136618066Y-87660841D01*
X136622360Y-87669511D01*
X136625458Y-87678688D01*
X136628801Y-87682514D01*
X136631055Y-87687063D01*
X136638342Y-87693431D01*
X136644715Y-87700724D01*
X136649266Y-87702978D01*
X136653090Y-87706320D01*
X136666493Y-87712364D01*
X137428398Y-87969506D01*
X137442723Y-87972820D01*
X137471920Y-87970854D01*
X137498143Y-87957866D01*
X137517399Y-87935830D01*
X137526757Y-87908103D01*
X137524791Y-87878905D01*
X137511803Y-87852683D01*
X137489768Y-87833426D01*
X137476365Y-87827382D01*
X136925013Y-87641301D01*
X137432950Y-87469873D01*
X137805952Y-87469873D01*
X137805952Y-87598444D01*
X137806349Y-87602482D01*
X137806160Y-87604033D01*
X137806945Y-87608535D01*
X137807393Y-87613076D01*
X137807989Y-87614516D01*
X137808688Y-87618517D01*
X137856307Y-87789946D01*
X137857057Y-87791885D01*
X137857163Y-87792806D01*
X137859496Y-87798191D01*
X137861612Y-87803659D01*
X137862182Y-87804388D01*
X137863009Y-87806296D01*
X137910628Y-87892010D01*
X137915264Y-87898711D01*
X137916106Y-87900474D01*
X137917670Y-87902188D01*
X137918994Y-87904101D01*
X137920526Y-87905317D01*
X137926017Y-87911334D01*
X138021255Y-87997049D01*
X138033095Y-88005766D01*
X138034841Y-88006383D01*
X138036276Y-88007554D01*
X138049877Y-88013139D01*
X138192734Y-88055996D01*
X138197969Y-88057020D01*
X138199653Y-88057718D01*
X138203435Y-88058090D01*
X138207163Y-88058820D01*
X138208974Y-88058635D01*
X138214285Y-88059159D01*
X138309523Y-88059159D01*
X138314833Y-88058635D01*
X138316645Y-88058820D01*
X138320372Y-88058090D01*
X138324155Y-88057718D01*
X138325838Y-88057020D01*
X138331074Y-88055996D01*
X138473931Y-88013139D01*
X138487532Y-88007554D01*
X138488966Y-88006383D01*
X138490713Y-88005766D01*
X138502553Y-87997049D01*
X138550172Y-87954191D01*
X138560083Y-87943331D01*
X138560943Y-87941527D01*
X138562359Y-87940112D01*
X138567221Y-87928373D01*
X138572687Y-87916921D01*
X138572792Y-87914925D01*
X138573558Y-87913076D01*
X138574999Y-87898444D01*
X138574999Y-87598444D01*
X138573558Y-87583812D01*
X138562359Y-87556776D01*
X138541667Y-87536084D01*
X138514631Y-87524885D01*
X138499999Y-87523444D01*
X138309523Y-87523444D01*
X138294891Y-87524885D01*
X138267855Y-87536084D01*
X138247163Y-87556776D01*
X138235964Y-87583812D01*
X138235964Y-87613076D01*
X138247163Y-87640112D01*
X138267855Y-87660804D01*
X138294891Y-87672003D01*
X138309523Y-87673444D01*
X138424999Y-87673444D01*
X138424999Y-87865042D01*
X138414712Y-87874299D01*
X138298515Y-87909159D01*
X138225293Y-87909159D01*
X138109094Y-87874299D01*
X138035671Y-87808217D01*
X137998453Y-87741227D01*
X137955952Y-87588220D01*
X137955952Y-87480096D01*
X137998453Y-87327089D01*
X138035671Y-87260098D01*
X138109093Y-87194018D01*
X138225293Y-87159159D01*
X138341045Y-87159159D01*
X138421603Y-87195410D01*
X138435538Y-87200101D01*
X138464788Y-87200983D01*
X138492149Y-87190604D01*
X138513456Y-87170545D01*
X138525465Y-87143859D01*
X138526347Y-87114609D01*
X138515969Y-87087248D01*
X138513061Y-87084159D01*
X138853571Y-87084159D01*
X138853571Y-87984159D01*
X138855012Y-87998791D01*
X138866211Y-88025827D01*
X138886903Y-88046519D01*
X138913939Y-88057718D01*
X138943203Y-88057718D01*
X138970239Y-88046519D01*
X138990931Y-88025827D01*
X139002130Y-87998791D01*
X139003571Y-87984159D01*
X139003571Y-87587730D01*
X139424999Y-87587730D01*
X139424999Y-87984159D01*
X139426440Y-87998791D01*
X139437639Y-88025827D01*
X139458331Y-88046519D01*
X139485367Y-88057718D01*
X139514631Y-88057718D01*
X139541667Y-88046519D01*
X139562359Y-88025827D01*
X139573558Y-87998791D01*
X139574999Y-87984159D01*
X139574999Y-87974537D01*
X139806572Y-87974537D01*
X139807393Y-87986649D01*
X139807393Y-87998791D01*
X139808377Y-88001166D01*
X139808551Y-88003733D01*
X139813946Y-88014611D01*
X139818592Y-88025827D01*
X139820410Y-88027645D01*
X139821553Y-88029949D01*
X139830697Y-88037932D01*
X139839284Y-88046519D01*
X139841660Y-88047503D01*
X139843598Y-88049195D01*
X139855101Y-88053070D01*
X139866320Y-88057718D01*
X139869956Y-88058076D01*
X139871330Y-88058539D01*
X139873300Y-88058405D01*
X139880952Y-88059159D01*
X140404761Y-88059159D01*
X140419393Y-88057718D01*
X140446429Y-88046519D01*
X140467121Y-88025827D01*
X140478320Y-87998791D01*
X140478320Y-87969527D01*
X140467121Y-87942491D01*
X140446429Y-87921799D01*
X140419393Y-87910600D01*
X140404761Y-87909159D01*
X140045988Y-87909159D01*
X140461260Y-87433483D01*
X140465723Y-87427224D01*
X140467121Y-87425827D01*
X140467676Y-87424486D01*
X140469797Y-87421513D01*
X140473672Y-87410009D01*
X140478320Y-87398791D01*
X140478320Y-87396217D01*
X140479141Y-87393781D01*
X140478320Y-87381669D01*
X140478320Y-87369527D01*
X140477335Y-87367151D01*
X140477162Y-87364586D01*
X140471768Y-87353710D01*
X140467121Y-87342491D01*
X140465302Y-87340672D01*
X140464160Y-87338369D01*
X140455015Y-87330385D01*
X140446429Y-87321799D01*
X140444052Y-87320814D01*
X140442115Y-87319123D01*
X140430611Y-87315247D01*
X140419393Y-87310600D01*
X140415756Y-87310241D01*
X140414383Y-87309779D01*
X140412412Y-87309912D01*
X140404761Y-87309159D01*
X139880952Y-87309159D01*
X139866320Y-87310600D01*
X139839284Y-87321799D01*
X139818592Y-87342491D01*
X139807393Y-87369527D01*
X139807393Y-87398791D01*
X139818592Y-87425827D01*
X139839284Y-87446519D01*
X139866320Y-87457718D01*
X139880952Y-87459159D01*
X140239725Y-87459159D01*
X139824453Y-87934835D01*
X139819989Y-87941093D01*
X139818592Y-87942491D01*
X139818036Y-87943831D01*
X139815916Y-87946805D01*
X139812040Y-87958308D01*
X139807393Y-87969527D01*
X139807393Y-87972100D01*
X139806572Y-87974537D01*
X139574999Y-87974537D01*
X139574999Y-87084159D01*
X139573558Y-87069527D01*
X139562359Y-87042491D01*
X139541667Y-87021799D01*
X139514631Y-87010600D01*
X139485367Y-87010600D01*
X139458331Y-87021799D01*
X139437639Y-87042491D01*
X139426440Y-87069527D01*
X139424999Y-87084159D01*
X139424999Y-87437730D01*
X139003571Y-87437730D01*
X139003571Y-87084159D01*
X139002130Y-87069527D01*
X138990931Y-87042491D01*
X138970239Y-87021799D01*
X138943203Y-87010600D01*
X138913939Y-87010600D01*
X138886903Y-87021799D01*
X138866211Y-87042491D01*
X138855012Y-87069527D01*
X138853571Y-87084159D01*
X138513061Y-87084159D01*
X138495910Y-87065941D01*
X138483158Y-87058622D01*
X138387919Y-87015765D01*
X138373985Y-87011074D01*
X138372834Y-87011039D01*
X138371774Y-87010600D01*
X138357142Y-87009159D01*
X138214285Y-87009159D01*
X138208974Y-87009682D01*
X138207163Y-87009498D01*
X138203435Y-87010227D01*
X138199653Y-87010600D01*
X138197969Y-87011297D01*
X138192734Y-87012322D01*
X138049877Y-87055179D01*
X138036276Y-87060764D01*
X138034841Y-87061934D01*
X138033095Y-87062552D01*
X138021255Y-87071269D01*
X137926018Y-87156983D01*
X137920525Y-87162999D01*
X137918994Y-87164216D01*
X137917672Y-87166125D01*
X137916106Y-87167842D01*
X137915263Y-87169607D01*
X137910628Y-87176307D01*
X137863009Y-87262021D01*
X137862182Y-87263928D01*
X137861612Y-87264658D01*
X137859496Y-87270125D01*
X137857163Y-87275511D01*
X137857057Y-87276431D01*
X137856307Y-87278371D01*
X137808688Y-87449800D01*
X137807989Y-87453800D01*
X137807393Y-87455241D01*
X137806945Y-87459781D01*
X137806160Y-87464284D01*
X137806349Y-87465834D01*
X137805952Y-87469873D01*
X137432950Y-87469873D01*
X137476364Y-87455221D01*
X137489767Y-87449177D01*
X137511803Y-87429920D01*
X137524791Y-87403698D01*
X137526757Y-87374500D01*
X137517399Y-87346773D01*
X137498142Y-87324737D01*
X137471920Y-87311749D01*
X137442722Y-87309783D01*
X137428398Y-87313097D01*
X136666493Y-87570240D01*
X136653090Y-87576284D01*
X136649263Y-87579627D01*
X136644715Y-87581881D01*
X136638346Y-87589168D01*
X136631054Y-87595541D01*
X136628799Y-87600092D01*
X136625458Y-87603916D01*
X136622361Y-87613090D01*
X136618066Y-87621763D01*
X136617724Y-87626828D01*
X136616100Y-87631643D01*
X136301190Y-87631643D01*
X136301190Y-86909159D01*
X140792606Y-86909159D01*
X140792606Y-91057057D01*
G37*
D16*
X140500000Y-81750000D02*
G75*
G02*
X143500000Y-84750000I-1J-3000001D01*
G01*
X140500000Y-110500000D02*
X79500000Y-110500000D01*
X79500000Y-81750000D02*
X140500000Y-81750000D01*
X143500000Y-107500000D02*
G75*
G02*
X140500000Y-110500000I-3000001J1D01*
G01*
X79500000Y-110500000D02*
G75*
G02*
X76500000Y-107500000I1J3000001D01*
G01*
X76500000Y-84750000D02*
G75*
G02*
X79500000Y-81750000I3000001J-1D01*
G01*
X143500000Y-84750000D02*
X143500000Y-107500000D01*
X76500000Y-107500000D02*
X76500000Y-84750000D01*
D15*
X135693922Y-105533107D02*
X136027255Y-106433107D01*
X136027255Y-106433107D02*
X136360588Y-105533107D01*
X137217731Y-106433107D02*
X136646303Y-106433107D01*
X136932017Y-106433107D02*
X136932017Y-105533107D01*
X136932017Y-105533107D02*
X136836779Y-105661678D01*
X136836779Y-105661678D02*
X136741541Y-105747392D01*
X136741541Y-105747392D02*
X136646303Y-105790250D01*
X137646303Y-106347392D02*
X137693922Y-106390250D01*
X137693922Y-106390250D02*
X137646303Y-106433107D01*
X137646303Y-106433107D02*
X137598684Y-106390250D01*
X137598684Y-106390250D02*
X137646303Y-106347392D01*
X137646303Y-106347392D02*
X137646303Y-106433107D01*
X138312969Y-105533107D02*
X138408207Y-105533107D01*
X138408207Y-105533107D02*
X138503445Y-105575964D01*
X138503445Y-105575964D02*
X138551064Y-105618821D01*
X138551064Y-105618821D02*
X138598683Y-105704535D01*
X138598683Y-105704535D02*
X138646302Y-105875964D01*
X138646302Y-105875964D02*
X138646302Y-106090250D01*
X138646302Y-106090250D02*
X138598683Y-106261678D01*
X138598683Y-106261678D02*
X138551064Y-106347392D01*
X138551064Y-106347392D02*
X138503445Y-106390250D01*
X138503445Y-106390250D02*
X138408207Y-106433107D01*
X138408207Y-106433107D02*
X138312969Y-106433107D01*
X138312969Y-106433107D02*
X138217731Y-106390250D01*
X138217731Y-106390250D02*
X138170112Y-106347392D01*
X138170112Y-106347392D02*
X138122493Y-106261678D01*
X138122493Y-106261678D02*
X138074874Y-106090250D01*
X138074874Y-106090250D02*
X138074874Y-105875964D01*
X138074874Y-105875964D02*
X138122493Y-105704535D01*
X138122493Y-105704535D02*
X138170112Y-105618821D01*
X138170112Y-105618821D02*
X138217731Y-105575964D01*
X138217731Y-105575964D02*
X138312969Y-105533107D01*
X136360588Y-107024914D02*
X136265350Y-106982057D01*
X136265350Y-106982057D02*
X136122493Y-106982057D01*
X136122493Y-106982057D02*
X135979636Y-107024914D01*
X135979636Y-107024914D02*
X135884398Y-107110628D01*
X135884398Y-107110628D02*
X135836779Y-107196342D01*
X135836779Y-107196342D02*
X135789160Y-107367771D01*
X135789160Y-107367771D02*
X135789160Y-107496342D01*
X135789160Y-107496342D02*
X135836779Y-107667771D01*
X135836779Y-107667771D02*
X135884398Y-107753485D01*
X135884398Y-107753485D02*
X135979636Y-107839200D01*
X135979636Y-107839200D02*
X136122493Y-107882057D01*
X136122493Y-107882057D02*
X136217731Y-107882057D01*
X136217731Y-107882057D02*
X136360588Y-107839200D01*
X136360588Y-107839200D02*
X136408207Y-107796342D01*
X136408207Y-107796342D02*
X136408207Y-107496342D01*
X136408207Y-107496342D02*
X136217731Y-107496342D01*
X137217731Y-107839200D02*
X137122493Y-107882057D01*
X137122493Y-107882057D02*
X136932017Y-107882057D01*
X136932017Y-107882057D02*
X136836779Y-107839200D01*
X136836779Y-107839200D02*
X136789160Y-107753485D01*
X136789160Y-107753485D02*
X136789160Y-107410628D01*
X136789160Y-107410628D02*
X136836779Y-107324914D01*
X136836779Y-107324914D02*
X136932017Y-107282057D01*
X136932017Y-107282057D02*
X137122493Y-107282057D01*
X137122493Y-107282057D02*
X137217731Y-107324914D01*
X137217731Y-107324914D02*
X137265350Y-107410628D01*
X137265350Y-107410628D02*
X137265350Y-107496342D01*
X137265350Y-107496342D02*
X136789160Y-107582057D01*
X137598684Y-107282057D02*
X137789160Y-107882057D01*
X137789160Y-107882057D02*
X137979636Y-107453485D01*
X137979636Y-107453485D02*
X138170112Y-107882057D01*
X138170112Y-107882057D02*
X138360588Y-107282057D01*
X138741541Y-107882057D02*
X138741541Y-107282057D01*
X138741541Y-106982057D02*
X138693922Y-107024914D01*
X138693922Y-107024914D02*
X138741541Y-107067771D01*
X138741541Y-107067771D02*
X138789160Y-107024914D01*
X138789160Y-107024914D02*
X138741541Y-106982057D01*
X138741541Y-106982057D02*
X138741541Y-107067771D01*
X139598683Y-107839200D02*
X139503445Y-107882057D01*
X139503445Y-107882057D02*
X139312969Y-107882057D01*
X139312969Y-107882057D02*
X139217731Y-107839200D01*
X139217731Y-107839200D02*
X139170112Y-107753485D01*
X139170112Y-107753485D02*
X139170112Y-107410628D01*
X139170112Y-107410628D02*
X139217731Y-107324914D01*
X139217731Y-107324914D02*
X139312969Y-107282057D01*
X139312969Y-107282057D02*
X139503445Y-107282057D01*
X139503445Y-107282057D02*
X139598683Y-107324914D01*
X139598683Y-107324914D02*
X139646302Y-107410628D01*
X139646302Y-107410628D02*
X139646302Y-107496342D01*
X139646302Y-107496342D02*
X139170112Y-107582057D01*
X140027255Y-107839200D02*
X140122493Y-107882057D01*
X140122493Y-107882057D02*
X140312969Y-107882057D01*
X140312969Y-107882057D02*
X140408207Y-107839200D01*
X140408207Y-107839200D02*
X140455826Y-107753485D01*
X140455826Y-107753485D02*
X140455826Y-107710628D01*
X140455826Y-107710628D02*
X140408207Y-107624914D01*
X140408207Y-107624914D02*
X140312969Y-107582057D01*
X140312969Y-107582057D02*
X140170112Y-107582057D01*
X140170112Y-107582057D02*
X140074874Y-107539200D01*
X140074874Y-107539200D02*
X140027255Y-107453485D01*
X140027255Y-107453485D02*
X140027255Y-107410628D01*
X140027255Y-107410628D02*
X140074874Y-107324914D01*
X140074874Y-107324914D02*
X140170112Y-107282057D01*
X140170112Y-107282057D02*
X140312969Y-107282057D01*
X140312969Y-107282057D02*
X140408207Y-107324914D01*
X141265350Y-107839200D02*
X141170112Y-107882057D01*
X141170112Y-107882057D02*
X140979636Y-107882057D01*
X140979636Y-107882057D02*
X140884398Y-107839200D01*
X140884398Y-107839200D02*
X140836779Y-107753485D01*
X140836779Y-107753485D02*
X140836779Y-107410628D01*
X140836779Y-107410628D02*
X140884398Y-107324914D01*
X140884398Y-107324914D02*
X140979636Y-107282057D01*
X140979636Y-107282057D02*
X141170112Y-107282057D01*
X141170112Y-107282057D02*
X141265350Y-107324914D01*
X141265350Y-107324914D02*
X141312969Y-107410628D01*
X141312969Y-107410628D02*
X141312969Y-107496342D01*
X141312969Y-107496342D02*
X140836779Y-107582057D01*
X126312969Y-69482057D02*
X125836779Y-69482057D01*
X125836779Y-69482057D02*
X125789160Y-69910628D01*
X125789160Y-69910628D02*
X125836779Y-69867771D01*
X125836779Y-69867771D02*
X125932017Y-69824914D01*
X125932017Y-69824914D02*
X126170112Y-69824914D01*
X126170112Y-69824914D02*
X126265350Y-69867771D01*
X126265350Y-69867771D02*
X126312969Y-69910628D01*
X126312969Y-69910628D02*
X126360588Y-69996342D01*
X126360588Y-69996342D02*
X126360588Y-70210628D01*
X126360588Y-70210628D02*
X126312969Y-70296342D01*
X126312969Y-70296342D02*
X126265350Y-70339200D01*
X126265350Y-70339200D02*
X126170112Y-70382057D01*
X126170112Y-70382057D02*
X125932017Y-70382057D01*
X125932017Y-70382057D02*
X125836779Y-70339200D01*
X125836779Y-70339200D02*
X125789160Y-70296342D01*
X126979636Y-69482057D02*
X127074874Y-69482057D01*
X127074874Y-69482057D02*
X127170112Y-69524914D01*
X127170112Y-69524914D02*
X127217731Y-69567771D01*
X127217731Y-69567771D02*
X127265350Y-69653485D01*
X127265350Y-69653485D02*
X127312969Y-69824914D01*
X127312969Y-69824914D02*
X127312969Y-70039200D01*
X127312969Y-70039200D02*
X127265350Y-70210628D01*
X127265350Y-70210628D02*
X127217731Y-70296342D01*
X127217731Y-70296342D02*
X127170112Y-70339200D01*
X127170112Y-70339200D02*
X127074874Y-70382057D01*
X127074874Y-70382057D02*
X126979636Y-70382057D01*
X126979636Y-70382057D02*
X126884398Y-70339200D01*
X126884398Y-70339200D02*
X126836779Y-70296342D01*
X126836779Y-70296342D02*
X126789160Y-70210628D01*
X126789160Y-70210628D02*
X126741541Y-70039200D01*
X126741541Y-70039200D02*
X126741541Y-69824914D01*
X126741541Y-69824914D02*
X126789160Y-69653485D01*
X126789160Y-69653485D02*
X126836779Y-69567771D01*
X126836779Y-69567771D02*
X126884398Y-69524914D01*
X126884398Y-69524914D02*
X126979636Y-69482057D01*
X127693922Y-70382057D02*
X127932017Y-70382057D01*
X127932017Y-70382057D02*
X127932017Y-70210628D01*
X127932017Y-70210628D02*
X127836779Y-70167771D01*
X127836779Y-70167771D02*
X127741541Y-70082057D01*
X127741541Y-70082057D02*
X127693922Y-69953485D01*
X127693922Y-69953485D02*
X127693922Y-69739200D01*
X127693922Y-69739200D02*
X127741541Y-69610628D01*
X127741541Y-69610628D02*
X127836779Y-69524914D01*
X127836779Y-69524914D02*
X127979636Y-69482057D01*
X127979636Y-69482057D02*
X128170112Y-69482057D01*
X128170112Y-69482057D02*
X128312969Y-69524914D01*
X128312969Y-69524914D02*
X128408207Y-69610628D01*
X128408207Y-69610628D02*
X128455826Y-69739200D01*
X128455826Y-69739200D02*
X128455826Y-69953485D01*
X128455826Y-69953485D02*
X128408207Y-70082057D01*
X128408207Y-70082057D02*
X128312969Y-70167771D01*
X128312969Y-70167771D02*
X128217731Y-70210628D01*
X128217731Y-70210628D02*
X128217731Y-70382057D01*
X128217731Y-70382057D02*
X128455826Y-70382057D01*
X91880180Y-71586779D02*
X92546847Y-71586779D01*
X92356371Y-71586779D02*
X92451609Y-71634398D01*
X92451609Y-71634398D02*
X92499228Y-71682017D01*
X92499228Y-71682017D02*
X92546847Y-71777255D01*
X92546847Y-71777255D02*
X92546847Y-71872493D01*
X91927800Y-72586779D02*
X91880180Y-72491541D01*
X91880180Y-72491541D02*
X91880180Y-72301065D01*
X91880180Y-72301065D02*
X91927800Y-72205827D01*
X91927800Y-72205827D02*
X92023038Y-72158208D01*
X92023038Y-72158208D02*
X92403990Y-72158208D01*
X92403990Y-72158208D02*
X92499228Y-72205827D01*
X92499228Y-72205827D02*
X92546847Y-72301065D01*
X92546847Y-72301065D02*
X92546847Y-72491541D01*
X92546847Y-72491541D02*
X92499228Y-72586779D01*
X92499228Y-72586779D02*
X92403990Y-72634398D01*
X92403990Y-72634398D02*
X92308752Y-72634398D01*
X92308752Y-72634398D02*
X92213514Y-72158208D01*
X91927800Y-73015351D02*
X91880180Y-73110589D01*
X91880180Y-73110589D02*
X91880180Y-73301065D01*
X91880180Y-73301065D02*
X91927800Y-73396303D01*
X91927800Y-73396303D02*
X92023038Y-73443922D01*
X92023038Y-73443922D02*
X92070657Y-73443922D01*
X92070657Y-73443922D02*
X92165895Y-73396303D01*
X92165895Y-73396303D02*
X92213514Y-73301065D01*
X92213514Y-73301065D02*
X92213514Y-73158208D01*
X92213514Y-73158208D02*
X92261133Y-73062970D01*
X92261133Y-73062970D02*
X92356371Y-73015351D01*
X92356371Y-73015351D02*
X92403990Y-73015351D01*
X92403990Y-73015351D02*
X92499228Y-73062970D01*
X92499228Y-73062970D02*
X92546847Y-73158208D01*
X92546847Y-73158208D02*
X92546847Y-73301065D01*
X92546847Y-73301065D02*
X92499228Y-73396303D01*
X91927800Y-74253446D02*
X91880180Y-74158208D01*
X91880180Y-74158208D02*
X91880180Y-73967732D01*
X91880180Y-73967732D02*
X91927800Y-73872494D01*
X91927800Y-73872494D02*
X92023038Y-73824875D01*
X92023038Y-73824875D02*
X92403990Y-73824875D01*
X92403990Y-73824875D02*
X92499228Y-73872494D01*
X92499228Y-73872494D02*
X92546847Y-73967732D01*
X92546847Y-73967732D02*
X92546847Y-74158208D01*
X92546847Y-74158208D02*
X92499228Y-74253446D01*
X92499228Y-74253446D02*
X92403990Y-74301065D01*
X92403990Y-74301065D02*
X92308752Y-74301065D01*
X92308752Y-74301065D02*
X92213514Y-73824875D01*
X92546847Y-74586780D02*
X92546847Y-74967732D01*
X92880180Y-74729637D02*
X92023038Y-74729637D01*
X92023038Y-74729637D02*
X91927800Y-74777256D01*
X91927800Y-74777256D02*
X91880180Y-74872494D01*
X91880180Y-74872494D02*
X91880180Y-74967732D01*
X99130180Y-72086779D02*
X100130180Y-72086779D01*
X99749228Y-72086779D02*
X99796847Y-72182017D01*
X99796847Y-72182017D02*
X99796847Y-72372493D01*
X99796847Y-72372493D02*
X99749228Y-72467731D01*
X99749228Y-72467731D02*
X99701609Y-72515350D01*
X99701609Y-72515350D02*
X99606371Y-72562969D01*
X99606371Y-72562969D02*
X99320657Y-72562969D01*
X99320657Y-72562969D02*
X99225419Y-72515350D01*
X99225419Y-72515350D02*
X99177800Y-72467731D01*
X99177800Y-72467731D02*
X99130180Y-72372493D01*
X99130180Y-72372493D02*
X99130180Y-72182017D01*
X99130180Y-72182017D02*
X99177800Y-72086779D01*
X99130180Y-73134398D02*
X99177800Y-73039160D01*
X99177800Y-73039160D02*
X99225419Y-72991541D01*
X99225419Y-72991541D02*
X99320657Y-72943922D01*
X99320657Y-72943922D02*
X99606371Y-72943922D01*
X99606371Y-72943922D02*
X99701609Y-72991541D01*
X99701609Y-72991541D02*
X99749228Y-73039160D01*
X99749228Y-73039160D02*
X99796847Y-73134398D01*
X99796847Y-73134398D02*
X99796847Y-73277255D01*
X99796847Y-73277255D02*
X99749228Y-73372493D01*
X99749228Y-73372493D02*
X99701609Y-73420112D01*
X99701609Y-73420112D02*
X99606371Y-73467731D01*
X99606371Y-73467731D02*
X99320657Y-73467731D01*
X99320657Y-73467731D02*
X99225419Y-73420112D01*
X99225419Y-73420112D02*
X99177800Y-73372493D01*
X99177800Y-73372493D02*
X99130180Y-73277255D01*
X99130180Y-73277255D02*
X99130180Y-73134398D01*
X99130180Y-74039160D02*
X99177800Y-73943922D01*
X99177800Y-73943922D02*
X99225419Y-73896303D01*
X99225419Y-73896303D02*
X99320657Y-73848684D01*
X99320657Y-73848684D02*
X99606371Y-73848684D01*
X99606371Y-73848684D02*
X99701609Y-73896303D01*
X99701609Y-73896303D02*
X99749228Y-73943922D01*
X99749228Y-73943922D02*
X99796847Y-74039160D01*
X99796847Y-74039160D02*
X99796847Y-74182017D01*
X99796847Y-74182017D02*
X99749228Y-74277255D01*
X99749228Y-74277255D02*
X99701609Y-74324874D01*
X99701609Y-74324874D02*
X99606371Y-74372493D01*
X99606371Y-74372493D02*
X99320657Y-74372493D01*
X99320657Y-74372493D02*
X99225419Y-74324874D01*
X99225419Y-74324874D02*
X99177800Y-74277255D01*
X99177800Y-74277255D02*
X99130180Y-74182017D01*
X99130180Y-74182017D02*
X99130180Y-74039160D01*
X99796847Y-74658208D02*
X99796847Y-75039160D01*
X100130180Y-74801065D02*
X99273038Y-74801065D01*
X99273038Y-74801065D02*
X99177800Y-74848684D01*
X99177800Y-74848684D02*
X99130180Y-74943922D01*
X99130180Y-74943922D02*
X99130180Y-75039160D01*
D17*
%TO.C,R15*%
X89000000Y-90097500D03*
X89000000Y-88902500D03*
%TD*%
D18*
%TO.C,D4*%
X89000000Y-91427500D03*
X89000000Y-92572500D03*
%TD*%
%TO.C,D3*%
X87500000Y-92572500D03*
X87500000Y-91427500D03*
%TD*%
D17*
%TO.C,R12*%
X87500000Y-88902500D03*
X87500000Y-90097500D03*
%TD*%
%TO.C,R7*%
X84000000Y-101000000D03*
X84000000Y-99805000D03*
%TD*%
D19*
%TO.C,R6*%
X84000000Y-94902500D03*
X84000000Y-96097500D03*
%TD*%
D20*
%TO.C,H2*%
X132500000Y-83550000D03*
D21*
X126750000Y-83550000D03*
X120750000Y-83550000D03*
X114750000Y-83550000D03*
X108750000Y-83550000D03*
X102750000Y-83550000D03*
D20*
X97000000Y-83550000D03*
D22*
X133700000Y-84575000D03*
X95800000Y-84575000D03*
D23*
X133700000Y-90150000D03*
X95800000Y-90150000D03*
X133700000Y-96150000D03*
X95800000Y-96150000D03*
X133700000Y-102150000D03*
X95800000Y-102150000D03*
D22*
X133700000Y-107725000D03*
X95800000Y-107725000D03*
D20*
X132500000Y-108750000D03*
D21*
X126750000Y-108750000D03*
X120750000Y-108750000D03*
X114750000Y-108750000D03*
X108750000Y-108750000D03*
X102750000Y-108750000D03*
D20*
X97000000Y-108750000D03*
%TD*%
D24*
%TO.C,J4*%
X80813000Y-94500000D03*
X80813000Y-100500000D03*
D25*
X82088000Y-94300000D03*
X82088000Y-95100000D03*
D26*
X82088000Y-96250000D03*
X82088000Y-97250000D03*
X82088000Y-97750000D03*
X82088000Y-98750000D03*
D25*
X82088000Y-100700000D03*
X82088000Y-99900000D03*
D26*
X82088000Y-99250000D03*
X82088000Y-98250000D03*
X82088000Y-96750000D03*
X82088000Y-95750000D03*
D27*
X81438000Y-92405000D03*
D28*
X77513000Y-92405000D03*
D27*
X81438000Y-102595000D03*
D28*
X77513000Y-102595000D03*
%TD*%
D29*
%TO.C,U2*%
X90937500Y-99687500D03*
X90937500Y-99187500D03*
X90937500Y-98687500D03*
X90937500Y-98187500D03*
X90937500Y-97687500D03*
X90937500Y-97187500D03*
X90937500Y-96687500D03*
X90937500Y-96187500D03*
D30*
X90250000Y-95500000D03*
X89750000Y-95500000D03*
X89250000Y-95500000D03*
X88750000Y-95500000D03*
X88250000Y-95500000D03*
X87750000Y-95500000D03*
X87250000Y-95500000D03*
X86750000Y-95500000D03*
D29*
X86062500Y-96187500D03*
X86062500Y-96687500D03*
X86062500Y-97187500D03*
X86062500Y-97687500D03*
X86062500Y-98187500D03*
X86062500Y-98687500D03*
X86062500Y-99187500D03*
X86062500Y-99687500D03*
D30*
X86750000Y-100375000D03*
X87250000Y-100375000D03*
X87750000Y-100375000D03*
X88250000Y-100375000D03*
X88750000Y-100375000D03*
X89250000Y-100375000D03*
X89750000Y-100375000D03*
X90250000Y-100375000D03*
D31*
X88500000Y-97937500D03*
%TD*%
D32*
%TO.C,C2*%
X112751283Y-102501283D03*
X111948717Y-101698717D03*
%TD*%
D33*
%TO.C,C24*%
X109682500Y-87400000D03*
X110817500Y-87400000D03*
%TD*%
D34*
%TO.C,L6*%
X116777500Y-93100000D03*
X117922500Y-93100000D03*
%TD*%
D35*
%TO.C,C7*%
X126800000Y-99382500D03*
X126800000Y-100517500D03*
%TD*%
D36*
%TO.C,R8*%
X92000000Y-88700000D03*
X90805000Y-88700000D03*
%TD*%
D37*
%TO.C,C19*%
X113648717Y-91451283D03*
X114451283Y-90648717D03*
%TD*%
D17*
%TO.C,R5*%
X86000000Y-90097500D03*
X86000000Y-88902500D03*
%TD*%
D38*
%TO.C,C20*%
X103067500Y-92500000D03*
X101932500Y-92500000D03*
%TD*%
D35*
%TO.C,C13*%
X109750000Y-99932500D03*
X109750000Y-101067500D03*
%TD*%
D38*
%TO.C,C5*%
X122367500Y-96200000D03*
X121232500Y-96200000D03*
%TD*%
D39*
%TO.C,C35*%
X101500000Y-91317500D03*
X101500000Y-90182500D03*
%TD*%
D33*
%TO.C,C29*%
X84528000Y-84550000D03*
X83393000Y-84550000D03*
%TD*%
D40*
%TO.C,IC1*%
X105700000Y-92750000D03*
X105700000Y-93250000D03*
X105700000Y-93750000D03*
X105700000Y-94250000D03*
X105700000Y-94750000D03*
X105700000Y-95250000D03*
X105700000Y-95750000D03*
X105700000Y-96250000D03*
D41*
X106400000Y-96950000D03*
X106900000Y-96950000D03*
X107400000Y-96950000D03*
X107900000Y-96950000D03*
X108400000Y-96950000D03*
X108900000Y-96950000D03*
X109400000Y-96950000D03*
X109900000Y-96950000D03*
D40*
X110600000Y-96250000D03*
X110600000Y-95750000D03*
X110600000Y-95250000D03*
X110600000Y-94750000D03*
X110600000Y-94250000D03*
X110600000Y-93750000D03*
X110600000Y-93250000D03*
X110600000Y-92750000D03*
D41*
X109900000Y-92050000D03*
X109400000Y-92050000D03*
X108900000Y-92050000D03*
X108400000Y-92050000D03*
X107900000Y-92050000D03*
X107400000Y-92050000D03*
X106900000Y-92050000D03*
X106400000Y-92050000D03*
D42*
X108150000Y-94500000D03*
%TD*%
D43*
%TO.C,C32*%
X93287500Y-90550000D03*
X91212500Y-90550000D03*
%TD*%
D44*
%TO.C,Y1*%
X97950000Y-87300000D03*
X97950000Y-89500000D03*
X99550000Y-89500000D03*
X99550000Y-87300000D03*
%TD*%
D34*
%TO.C,L7*%
X116777500Y-95500000D03*
X117922500Y-95500000D03*
%TD*%
D45*
%TO.C,L9*%
X123345181Y-102804819D03*
X124154819Y-101995181D03*
%TD*%
D46*
%TO.C,C10*%
X126151283Y-103748717D03*
X125348717Y-104551283D03*
%TD*%
D19*
%TO.C,R9*%
X93900000Y-87402500D03*
X93900000Y-88597500D03*
%TD*%
%TO.C,R11*%
X84500000Y-91402500D03*
X84500000Y-92597500D03*
%TD*%
D33*
%TO.C,C9*%
X116782500Y-96700000D03*
X117917500Y-96700000D03*
%TD*%
D38*
%TO.C,C23*%
X102317500Y-95250000D03*
X101182500Y-95250000D03*
%TD*%
D47*
%TO.C,L1*%
X112354819Y-99504819D03*
X111545181Y-98695181D03*
%TD*%
D48*
%TO.C,C4*%
X114348717Y-99498717D03*
X115151283Y-100301283D03*
%TD*%
%TO.C,C3*%
X112548717Y-97698717D03*
X113351283Y-98501283D03*
%TD*%
D49*
%TO.C,Y2*%
X106350001Y-86412000D03*
X106350000Y-88013001D03*
X104150001Y-86412000D03*
X104150000Y-88012998D03*
%TD*%
D37*
%TO.C,C21*%
X112848717Y-90651283D03*
X113651283Y-89848717D03*
%TD*%
D50*
%TO.C,R10*%
X81587500Y-104642500D03*
X79762500Y-104642500D03*
%TD*%
D38*
%TO.C,C16*%
X102317500Y-94050000D03*
X101182500Y-94050000D03*
%TD*%
D51*
%TO.C,R2*%
X125172496Y-102727504D03*
X124327504Y-103572496D03*
%TD*%
D35*
%TO.C,C34*%
X101250000Y-87332500D03*
X101250000Y-88467500D03*
%TD*%
D33*
%TO.C,C31*%
X84250000Y-104642500D03*
X83115000Y-104642500D03*
%TD*%
D37*
%TO.C,C11*%
X123148717Y-101101283D03*
X123951283Y-100298717D03*
%TD*%
D52*
%TO.C,IC4*%
X92000000Y-86300000D03*
D53*
X91350000Y-85250000D03*
X92000000Y-85250000D03*
X92650000Y-85250000D03*
X92650000Y-87350000D03*
X92000000Y-87350000D03*
X91350000Y-87350000D03*
%TD*%
D33*
%TO.C,C6*%
X126782500Y-96250000D03*
X127917500Y-96250000D03*
%TD*%
D54*
%TO.C,L2*%
X113345181Y-100495181D03*
X114154819Y-101304819D03*
%TD*%
D38*
%TO.C,C27*%
X80743000Y-84550000D03*
X81878000Y-84550000D03*
%TD*%
D39*
%TO.C,C12*%
X85250000Y-93682500D03*
X85250000Y-94817500D03*
%TD*%
D38*
%TO.C,C33*%
X87750000Y-103217500D03*
X88885000Y-103217500D03*
%TD*%
D55*
%TO.C,Reset1*%
X82825000Y-108292500D03*
X78675000Y-108292500D03*
X82825000Y-106142500D03*
X78675000Y-106142500D03*
%TD*%
D34*
%TO.C,L5*%
X124177500Y-97850000D03*
X125322500Y-97850000D03*
%TD*%
D35*
%TO.C,C30*%
X93950000Y-86200000D03*
X93950000Y-85065000D03*
%TD*%
D55*
%TO.C,Boot1*%
X89392500Y-108292500D03*
X85242500Y-108292500D03*
X89392500Y-106142500D03*
X85242500Y-106142500D03*
%TD*%
D56*
%TO.C,R14*%
X99662500Y-91400000D03*
X97837500Y-91400000D03*
%TD*%
D57*
%TO.C,IC2*%
X117650000Y-102770000D03*
D58*
X119150000Y-102520000D03*
D57*
X120650000Y-102770000D03*
D59*
X119150000Y-99853000D03*
%TD*%
D60*
%TO.C,L3*%
X119500000Y-94977500D03*
X119500000Y-96122500D03*
%TD*%
D17*
%TO.C,R4*%
X86000000Y-87597500D03*
X86000000Y-86402500D03*
%TD*%
D35*
%TO.C,C18*%
X106950000Y-99732500D03*
X106950000Y-100867500D03*
%TD*%
D61*
%TO.C,J1*%
X141637500Y-99250000D03*
X141637500Y-95000000D03*
X141637500Y-103500000D03*
%TD*%
D62*
%TO.C,J2*%
X93500000Y-104000000D03*
X93500000Y-107300000D03*
X92500000Y-104000000D03*
X92500000Y-107300000D03*
X91500000Y-104000000D03*
X91500000Y-107300000D03*
%TD*%
D39*
%TO.C,C17*%
X110750000Y-89817500D03*
X110750000Y-88682500D03*
%TD*%
D33*
%TO.C,C26*%
X104182500Y-89400000D03*
X105317500Y-89400000D03*
%TD*%
D35*
%TO.C,C1*%
X93500000Y-99317500D03*
X93500000Y-98182500D03*
%TD*%
D38*
%TO.C,C25*%
X107817500Y-89400000D03*
X106682500Y-89400000D03*
%TD*%
D39*
%TO.C,C15*%
X109550000Y-89817500D03*
X109550000Y-88682500D03*
%TD*%
D43*
%TO.C,C28*%
X88444000Y-84748500D03*
X86369000Y-84748500D03*
%TD*%
D18*
%TO.C,D2*%
X86000000Y-91427500D03*
X86000000Y-92572500D03*
%TD*%
D37*
%TO.C,C22*%
X114448717Y-92251283D03*
X115251283Y-91448717D03*
%TD*%
D34*
%TO.C,L4*%
X126777500Y-97850000D03*
X127922500Y-97850000D03*
%TD*%
D33*
%TO.C,C8*%
X116782500Y-94350000D03*
X117917500Y-94350000D03*
%TD*%
D35*
%TO.C,C14*%
X105750000Y-99732500D03*
X105750000Y-100867500D03*
%TD*%
D63*
%TO.C,R3*%
X108350000Y-99987500D03*
X108350000Y-101812500D03*
%TD*%
D56*
%TO.C,R13*%
X86830000Y-104642500D03*
X88655000Y-104642500D03*
%TD*%
D18*
%TO.C,L8*%
X115350000Y-95572500D03*
X115350000Y-94427500D03*
%TD*%
D64*
%TO.C,IC3*%
X82410500Y-86398500D03*
X83360500Y-86398500D03*
X84310500Y-86398500D03*
X84310500Y-88898500D03*
X83360500Y-88898500D03*
X82410500Y-88898500D03*
%TD*%
D65*
%TO.C,L10*%
X79454000Y-88650000D03*
X79454000Y-86450000D03*
%TD*%
D66*
%TO.C,R1*%
X111772496Y-103522496D03*
X110927504Y-102677504D03*
%TD*%
%LPD*%
M02*
