%TF.GenerationSoftware,KiCad,Pcbnew,9.0.8-1.fc43*%
%TF.CreationDate,2026-04-06T14:18:54+02:00*%
%TF.ProjectId,CC1125_Transceiver,43433131-3235-45f5-9472-616e73636569,rev?*%
%TF.SameCoordinates,Original*%
%TF.FileFunction,Paste,Top*%
%TF.FilePolarity,Positive*%
%FSLAX46Y46*%
G04 Gerber Fmt 4.6, Leading zero omitted, Abs format (unit mm)*
G04 Created by KiCad (PCBNEW 9.0.8-1.fc43) date 2026-04-06 14:18:54*
%MOMM*%
%LPD*%
G01*
G04 APERTURE LIST*
G04 Aperture macros list*
%AMRoundRect*
0 Rectangle with rounded corners*
0 $1 Rounding radius*
0 $2 $3 $4 $5 $6 $7 $8 $9 X,Y pos of 4 corners*
0 Add a 4 corners polygon primitive as box body*
4,1,4,$2,$3,$4,$5,$6,$7,$8,$9,$2,$3,0*
0 Add four circle primitives for the rounded corners*
1,1,$1+$1,$2,$3*
1,1,$1+$1,$4,$5*
1,1,$1+$1,$6,$7*
1,1,$1+$1,$8,$9*
0 Add four rect primitives between the rounded corners*
20,1,$1+$1,$2,$3,$4,$5,0*
20,1,$1+$1,$4,$5,$6,$7,0*
20,1,$1+$1,$6,$7,$8,$9,0*
20,1,$1+$1,$8,$9,$2,$3,0*%
G04 Aperture macros list end*
%ADD10RoundRect,0.160000X-0.160000X0.197500X-0.160000X-0.197500X0.160000X-0.197500X0.160000X0.197500X0*%
%ADD11RoundRect,0.160000X0.160000X-0.222500X0.160000X0.222500X-0.160000X0.222500X-0.160000X-0.222500X0*%
%ADD12RoundRect,0.160000X0.160000X-0.197500X0.160000X0.197500X-0.160000X0.197500X-0.160000X-0.197500X0*%
%ADD13R,3.400000X1.000000*%
%ADD14R,3.300000X1.000000*%
%ADD15R,1.000000X3.050000*%
%ADD16R,1.000000X3.300000*%
%ADD17R,1.150000X0.600000*%
%ADD18R,1.150000X0.300000*%
%ADD19R,1.250000X1.550000*%
%ADD20R,1.500000X1.550000*%
%ADD21RoundRect,0.232500X0.232500X0.232500X-0.232500X0.232500X-0.232500X-0.232500X0.232500X-0.232500X0*%
%ADD22RoundRect,0.062500X0.375000X0.062500X-0.375000X0.062500X-0.375000X-0.062500X0.375000X-0.062500X0*%
%ADD23RoundRect,0.062500X0.062500X0.375000X-0.062500X0.375000X-0.062500X-0.375000X0.062500X-0.375000X0*%
%ADD24RoundRect,0.155000X0.259862X-0.040659X-0.040659X0.259862X-0.259862X0.040659X0.040659X-0.259862X0*%
%ADD25RoundRect,0.155000X-0.212500X-0.155000X0.212500X-0.155000X0.212500X0.155000X-0.212500X0.155000X0*%
%ADD26RoundRect,0.160000X-0.222500X-0.160000X0.222500X-0.160000X0.222500X0.160000X-0.222500X0.160000X0*%
%ADD27RoundRect,0.155000X-0.155000X0.212500X-0.155000X-0.212500X0.155000X-0.212500X0.155000X0.212500X0*%
%ADD28RoundRect,0.160000X-0.197500X-0.160000X0.197500X-0.160000X0.197500X0.160000X-0.197500X0.160000X0*%
%ADD29RoundRect,0.155000X-0.040659X-0.259862X0.259862X0.040659X0.040659X0.259862X-0.259862X-0.040659X0*%
%ADD30RoundRect,0.155000X0.212500X0.155000X-0.212500X0.155000X-0.212500X-0.155000X0.212500X-0.155000X0*%
%ADD31RoundRect,0.155000X0.155000X-0.212500X0.155000X0.212500X-0.155000X0.212500X-0.155000X-0.212500X0*%
%ADD32R,0.900000X0.300000*%
%ADD33R,0.300000X0.900000*%
%ADD34R,3.550000X3.550000*%
%ADD35RoundRect,0.250000X-0.337500X-0.475000X0.337500X-0.475000X0.337500X0.475000X-0.337500X0.475000X0*%
%ADD36R,1.200000X1.400000*%
%ADD37RoundRect,0.160000X-0.044194X-0.270468X0.270468X0.044194X0.044194X0.270468X-0.270468X-0.044194X0*%
%ADD38RoundRect,0.155000X0.040659X0.259862X-0.259862X-0.040659X-0.040659X-0.259862X0.259862X0.040659X0*%
%ADD39RoundRect,0.160000X0.270468X-0.044194X-0.044194X0.270468X-0.270468X0.044194X0.044194X-0.270468X0*%
%ADD40RoundRect,0.155000X-0.259862X0.040659X0.040659X-0.259862X0.259862X-0.040659X-0.040659X0.259862X0*%
%ADD41R,1.400000X1.150000*%
%ADD42RoundRect,0.237500X-0.250000X-0.237500X0.250000X-0.237500X0.250000X0.237500X-0.250000X0.237500X0*%
%ADD43RoundRect,0.160000X0.026517X0.252791X-0.252791X-0.026517X-0.026517X-0.252791X0.252791X0.026517X0*%
%ADD44R,1.700000X1.100000*%
%ADD45R,0.350000X0.600000*%
%ADD46RoundRect,0.160000X-0.270468X0.044194X0.044194X-0.270468X0.270468X-0.044194X-0.044194X0.270468X0*%
%ADD47R,1.050000X0.650000*%
%ADD48RoundRect,0.237500X0.250000X0.237500X-0.250000X0.237500X-0.250000X-0.237500X0.250000X-0.237500X0*%
%ADD49R,0.711000X1.500000*%
%ADD50R,0.914000X2.000000*%
%ADD51R,1.905000X3.334000*%
%ADD52RoundRect,0.160000X-0.160000X0.222500X-0.160000X-0.222500X0.160000X-0.222500X0.160000X0.222500X0*%
%ADD53R,5.080000X1.500000*%
%ADD54R,0.500000X2.000000*%
%ADD55RoundRect,0.237500X-0.237500X0.250000X-0.237500X-0.250000X0.237500X-0.250000X0.237500X0.250000X0*%
%ADD56R,0.600000X1.200000*%
%ADD57R,3.200000X1.000000*%
%ADD58RoundRect,0.160000X0.252791X-0.026517X-0.026517X0.252791X-0.252791X0.026517X0.026517X-0.252791X0*%
G04 APERTURE END LIST*
D10*
%TO.C,R15*%
X89000000Y-90097500D03*
X89000000Y-88902500D03*
%TD*%
D11*
%TO.C,D4*%
X89000000Y-91427500D03*
X89000000Y-92572500D03*
%TD*%
%TO.C,D3*%
X87500000Y-92572500D03*
X87500000Y-91427500D03*
%TD*%
D10*
%TO.C,R12*%
X87500000Y-88902500D03*
X87500000Y-90097500D03*
%TD*%
%TO.C,R7*%
X84000000Y-101000000D03*
X84000000Y-99805000D03*
%TD*%
D12*
%TO.C,R6*%
X84000000Y-94902500D03*
X84000000Y-96097500D03*
%TD*%
D13*
%TO.C,H2*%
X132500000Y-83550000D03*
D14*
X126750000Y-83550000D03*
X120750000Y-83550000D03*
X114750000Y-83550000D03*
X108750000Y-83550000D03*
X102750000Y-83550000D03*
D13*
X97000000Y-83550000D03*
D15*
X133700000Y-84575000D03*
X95800000Y-84575000D03*
D16*
X133700000Y-90150000D03*
X95800000Y-90150000D03*
X133700000Y-96150000D03*
X95800000Y-96150000D03*
X133700000Y-102150000D03*
X95800000Y-102150000D03*
D15*
X133700000Y-107725000D03*
X95800000Y-107725000D03*
D13*
X132500000Y-108750000D03*
D14*
X126750000Y-108750000D03*
X120750000Y-108750000D03*
X114750000Y-108750000D03*
X108750000Y-108750000D03*
X102750000Y-108750000D03*
D13*
X97000000Y-108750000D03*
%TD*%
D17*
%TO.C,J4*%
X82088000Y-94300000D03*
X82088000Y-95100000D03*
D18*
X82088000Y-96250000D03*
X82088000Y-97250000D03*
X82088000Y-97750000D03*
X82088000Y-98750000D03*
D17*
X82088000Y-100700000D03*
X82088000Y-99900000D03*
D18*
X82088000Y-99250000D03*
X82088000Y-98250000D03*
X82088000Y-96750000D03*
X82088000Y-95750000D03*
D19*
X81438000Y-92405000D03*
D20*
X77513000Y-92405000D03*
D19*
X81438000Y-102595000D03*
D20*
X77513000Y-102595000D03*
%TD*%
D21*
%TO.C,U2*%
X89650000Y-99087500D03*
X89650000Y-97937500D03*
X89650000Y-96787500D03*
X88500000Y-99087500D03*
X88500000Y-97937500D03*
X88500000Y-96787500D03*
X87350000Y-99087500D03*
X87350000Y-97937500D03*
X87350000Y-96787500D03*
D22*
X90937500Y-99687500D03*
X90937500Y-99187500D03*
X90937500Y-98687500D03*
X90937500Y-98187500D03*
X90937500Y-97687500D03*
X90937500Y-97187500D03*
X90937500Y-96687500D03*
X90937500Y-96187500D03*
D23*
X90250000Y-95500000D03*
X89750000Y-95500000D03*
X89250000Y-95500000D03*
X88750000Y-95500000D03*
X88250000Y-95500000D03*
X87750000Y-95500000D03*
X87250000Y-95500000D03*
X86750000Y-95500000D03*
D22*
X86062500Y-96187500D03*
X86062500Y-96687500D03*
X86062500Y-97187500D03*
X86062500Y-97687500D03*
X86062500Y-98187500D03*
X86062500Y-98687500D03*
X86062500Y-99187500D03*
X86062500Y-99687500D03*
D23*
X86750000Y-100375000D03*
X87250000Y-100375000D03*
X87750000Y-100375000D03*
X88250000Y-100375000D03*
X88750000Y-100375000D03*
X89250000Y-100375000D03*
X89750000Y-100375000D03*
X90250000Y-100375000D03*
%TD*%
D24*
%TO.C,C2*%
X112751283Y-102501283D03*
X111948717Y-101698717D03*
%TD*%
D25*
%TO.C,C24*%
X109682500Y-87400000D03*
X110817500Y-87400000D03*
%TD*%
D26*
%TO.C,L6*%
X116777500Y-93100000D03*
X117922500Y-93100000D03*
%TD*%
D27*
%TO.C,C7*%
X126800000Y-99382500D03*
X126800000Y-100517500D03*
%TD*%
D28*
%TO.C,R8*%
X92000000Y-88700000D03*
X90805000Y-88700000D03*
%TD*%
D29*
%TO.C,C19*%
X113648717Y-91451283D03*
X114451283Y-90648717D03*
%TD*%
D10*
%TO.C,R5*%
X86000000Y-90097500D03*
X86000000Y-88902500D03*
%TD*%
D30*
%TO.C,C20*%
X103067500Y-92500000D03*
X101932500Y-92500000D03*
%TD*%
D27*
%TO.C,C13*%
X109750000Y-99932500D03*
X109750000Y-101067500D03*
%TD*%
D30*
%TO.C,C5*%
X122367500Y-96200000D03*
X121232500Y-96200000D03*
%TD*%
D31*
%TO.C,C35*%
X101500000Y-91317500D03*
X101500000Y-90182500D03*
%TD*%
D25*
%TO.C,C29*%
X84528000Y-84550000D03*
X83393000Y-84550000D03*
%TD*%
D32*
%TO.C,IC1*%
X105700000Y-92750000D03*
X105700000Y-93250000D03*
X105700000Y-93750000D03*
X105700000Y-94250000D03*
X105700000Y-94750000D03*
X105700000Y-95250000D03*
X105700000Y-95750000D03*
X105700000Y-96250000D03*
D33*
X106400000Y-96950000D03*
X106900000Y-96950000D03*
X107400000Y-96950000D03*
X107900000Y-96950000D03*
X108400000Y-96950000D03*
X108900000Y-96950000D03*
X109400000Y-96950000D03*
X109900000Y-96950000D03*
D32*
X110600000Y-96250000D03*
X110600000Y-95750000D03*
X110600000Y-95250000D03*
X110600000Y-94750000D03*
X110600000Y-94250000D03*
X110600000Y-93750000D03*
X110600000Y-93250000D03*
X110600000Y-92750000D03*
D33*
X109900000Y-92050000D03*
X109400000Y-92050000D03*
X108900000Y-92050000D03*
X108400000Y-92050000D03*
X107900000Y-92050000D03*
X107400000Y-92050000D03*
X106900000Y-92050000D03*
X106400000Y-92050000D03*
D34*
X108150000Y-94500000D03*
%TD*%
D35*
%TO.C,C32*%
X93287500Y-90550000D03*
X91212500Y-90550000D03*
%TD*%
D36*
%TO.C,Y1*%
X97950000Y-87300000D03*
X97950000Y-89500000D03*
X99550000Y-89500000D03*
X99550000Y-87300000D03*
%TD*%
D26*
%TO.C,L7*%
X116777500Y-95500000D03*
X117922500Y-95500000D03*
%TD*%
D37*
%TO.C,L9*%
X123345181Y-102804819D03*
X124154819Y-101995181D03*
%TD*%
D38*
%TO.C,C10*%
X126151283Y-103748717D03*
X125348717Y-104551283D03*
%TD*%
D12*
%TO.C,R9*%
X93900000Y-87402500D03*
X93900000Y-88597500D03*
%TD*%
%TO.C,R11*%
X84500000Y-91402500D03*
X84500000Y-92597500D03*
%TD*%
D25*
%TO.C,C9*%
X116782500Y-96700000D03*
X117917500Y-96700000D03*
%TD*%
D30*
%TO.C,C23*%
X102317500Y-95250000D03*
X101182500Y-95250000D03*
%TD*%
D39*
%TO.C,L1*%
X112354819Y-99504819D03*
X111545181Y-98695181D03*
%TD*%
D40*
%TO.C,C4*%
X114348717Y-99498717D03*
X115151283Y-100301283D03*
%TD*%
%TO.C,C3*%
X112548717Y-97698717D03*
X113351283Y-98501283D03*
%TD*%
D41*
%TO.C,Y2*%
X106350001Y-86412000D03*
X106350000Y-88013001D03*
X104150001Y-86412000D03*
X104150000Y-88012998D03*
%TD*%
D29*
%TO.C,C21*%
X112848717Y-90651283D03*
X113651283Y-89848717D03*
%TD*%
D42*
%TO.C,R10*%
X81587500Y-104642500D03*
X79762500Y-104642500D03*
%TD*%
D30*
%TO.C,C16*%
X102317500Y-94050000D03*
X101182500Y-94050000D03*
%TD*%
D43*
%TO.C,R2*%
X125172496Y-102727504D03*
X124327504Y-103572496D03*
%TD*%
D27*
%TO.C,C34*%
X101250000Y-87332500D03*
X101250000Y-88467500D03*
%TD*%
D25*
%TO.C,C31*%
X84250000Y-104642500D03*
X83115000Y-104642500D03*
%TD*%
D29*
%TO.C,C11*%
X123148717Y-101101283D03*
X123951283Y-100298717D03*
%TD*%
D44*
%TO.C,IC4*%
X92000000Y-86300000D03*
D45*
X91350000Y-85250000D03*
X92000000Y-85250000D03*
X92650000Y-85250000D03*
X92650000Y-87350000D03*
X92000000Y-87350000D03*
X91350000Y-87350000D03*
%TD*%
D25*
%TO.C,C6*%
X126782500Y-96250000D03*
X127917500Y-96250000D03*
%TD*%
D46*
%TO.C,L2*%
X113345181Y-100495181D03*
X114154819Y-101304819D03*
%TD*%
D30*
%TO.C,C27*%
X80743000Y-84550000D03*
X81878000Y-84550000D03*
%TD*%
D31*
%TO.C,C12*%
X85250000Y-93682500D03*
X85250000Y-94817500D03*
%TD*%
D30*
%TO.C,C33*%
X87750000Y-103217500D03*
X88885000Y-103217500D03*
%TD*%
D47*
%TO.C,Reset1*%
X82825000Y-108292500D03*
X78675000Y-108292500D03*
X82825000Y-106142500D03*
X78675000Y-106142500D03*
%TD*%
D26*
%TO.C,L5*%
X124177500Y-97850000D03*
X125322500Y-97850000D03*
%TD*%
D27*
%TO.C,C30*%
X93950000Y-86200000D03*
X93950000Y-85065000D03*
%TD*%
D47*
%TO.C,Boot1*%
X89392500Y-108292500D03*
X85242500Y-108292500D03*
X89392500Y-106142500D03*
X85242500Y-106142500D03*
%TD*%
D48*
%TO.C,R14*%
X99662500Y-91400000D03*
X97837500Y-91400000D03*
%TD*%
D49*
%TO.C,IC2*%
X117650000Y-102770000D03*
D50*
X119150000Y-102520000D03*
D49*
X120650000Y-102770000D03*
D51*
X119150000Y-99853000D03*
%TD*%
D52*
%TO.C,L3*%
X119500000Y-94977500D03*
X119500000Y-96122500D03*
%TD*%
D10*
%TO.C,R4*%
X86000000Y-87597500D03*
X86000000Y-86402500D03*
%TD*%
D27*
%TO.C,C18*%
X106950000Y-99732500D03*
X106950000Y-100867500D03*
%TD*%
D53*
%TO.C,J1*%
X141637500Y-99250000D03*
X141637500Y-95000000D03*
X141637500Y-103500000D03*
%TD*%
D54*
%TO.C,J2*%
X93500000Y-104000000D03*
X93500000Y-107300000D03*
X92500000Y-104000000D03*
X92500000Y-107300000D03*
X91500000Y-104000000D03*
X91500000Y-107300000D03*
%TD*%
D31*
%TO.C,C17*%
X110750000Y-89817500D03*
X110750000Y-88682500D03*
%TD*%
D25*
%TO.C,C26*%
X104182500Y-89400000D03*
X105317500Y-89400000D03*
%TD*%
D27*
%TO.C,C1*%
X93500000Y-99317500D03*
X93500000Y-98182500D03*
%TD*%
D30*
%TO.C,C25*%
X107817500Y-89400000D03*
X106682500Y-89400000D03*
%TD*%
D31*
%TO.C,C15*%
X109550000Y-89817500D03*
X109550000Y-88682500D03*
%TD*%
D35*
%TO.C,C28*%
X88444000Y-84748500D03*
X86369000Y-84748500D03*
%TD*%
D11*
%TO.C,D2*%
X86000000Y-91427500D03*
X86000000Y-92572500D03*
%TD*%
D29*
%TO.C,C22*%
X114448717Y-92251283D03*
X115251283Y-91448717D03*
%TD*%
D26*
%TO.C,L4*%
X126777500Y-97850000D03*
X127922500Y-97850000D03*
%TD*%
D25*
%TO.C,C8*%
X116782500Y-94350000D03*
X117917500Y-94350000D03*
%TD*%
D27*
%TO.C,C14*%
X105750000Y-99732500D03*
X105750000Y-100867500D03*
%TD*%
D55*
%TO.C,R3*%
X108350000Y-99987500D03*
X108350000Y-101812500D03*
%TD*%
D48*
%TO.C,R13*%
X86830000Y-104642500D03*
X88655000Y-104642500D03*
%TD*%
D11*
%TO.C,L8*%
X115350000Y-95572500D03*
X115350000Y-94427500D03*
%TD*%
D56*
%TO.C,IC3*%
X82410500Y-86398500D03*
X83360500Y-86398500D03*
X84310500Y-86398500D03*
X84310500Y-88898500D03*
X83360500Y-88898500D03*
X82410500Y-88898500D03*
%TD*%
D57*
%TO.C,L10*%
X79454000Y-88650000D03*
X79454000Y-86450000D03*
%TD*%
D58*
%TO.C,R1*%
X111772496Y-103522496D03*
X110927504Y-102677504D03*
%TD*%
M02*
