%TF.GenerationSoftware,KiCad,Pcbnew,9.0.8-1.fc43*%
%TF.CreationDate,2026-04-06T14:18:54+02:00*%
%TF.ProjectId,CC1125_Transceiver,43433131-3235-45f5-9472-616e73636569,rev?*%
%TF.SameCoordinates,Original*%
%TF.FileFunction,Copper,L3,Inr*%
%TF.FilePolarity,Positive*%
%FSLAX46Y46*%
G04 Gerber Fmt 4.6, Leading zero omitted, Abs format (unit mm)*
G04 Created by KiCad (PCBNEW 9.0.8-1.fc43) date 2026-04-06 14:18:54*
%MOMM*%
%LPD*%
G01*
G04 APERTURE LIST*
%TA.AperFunction,ViaPad*%
%ADD10C,0.600000*%
%TD*%
G04 APERTURE END LIST*
D10*
%TO.N,Net-(C37-Pad1)*%
X79000000Y-98500000D03*
%TO.N,GND*%
X84000000Y-90500000D03*
%TO.N,/SPI_SCK*%
X92500000Y-96000000D03*
%TO.N,/SPI_MISO*%
X90000000Y-93500000D03*
%TO.N,/SPI_MOSI*%
X89000000Y-93500000D03*
%TO.N,/SPI_CSN*%
X104000000Y-99000000D03*
%TO.N,/CC_GPIO*%
X104075735Y-98075735D03*
%TO.N,/SPI_MISO*%
X105000000Y-97500000D03*
%TO.N,/SPI_MOSI*%
X103500000Y-96000000D03*
%TO.N,/SPI_SCK*%
X104500000Y-96500000D03*
%TO.N,/CC_Resetn*%
X104000000Y-93500000D03*
%TO.N,/uc_Reset*%
X92500000Y-98500000D03*
%TO.N,GND*%
X117597000Y-99853000D03*
%TO.N,+3V3*%
X109550000Y-98900000D03*
%TO.N,GND*%
X119050000Y-93150000D03*
X112050000Y-88650000D03*
%TO.N,+3V3*%
X110300000Y-90900000D03*
%TO.N,GND*%
X120800000Y-99853000D03*
%TO.N,+3V3*%
X112924265Y-92524265D03*
%TO.N,+7V*%
X127102566Y-104650000D03*
%TO.N,+3V3*%
X109300000Y-90900000D03*
%TO.N,GND*%
X124550000Y-105400000D03*
X118861550Y-96742049D03*
%TO.N,+3V3*%
X111050000Y-104150000D03*
%TO.N,GND*%
X119200000Y-104050000D03*
X126850000Y-101600000D03*
X82500000Y-90500000D03*
X80500000Y-107467500D03*
X85204000Y-84550000D03*
X86817500Y-108117500D03*
X83454000Y-87800000D03*
X79704000Y-84550000D03*
%TO.N,+3V3*%
X91550000Y-92100000D03*
X85317500Y-105217500D03*
%TO.N,+7V*%
X82704000Y-84050000D03*
%TO.N,VUSB*%
X85052500Y-86398500D03*
X81288331Y-85270322D03*
X93550000Y-84100000D03*
%TO.N,/SPI_MISO*%
X92500000Y-102400000D03*
%TO.N,/CC_Resetn*%
X91500000Y-102400000D03*
%TO.N,/SPI_MOSI*%
X91500000Y-108900000D03*
%TO.N,/SPI_CSN*%
X93500000Y-102400000D03*
%TO.N,/SPI_SCK*%
X92500000Y-108900000D03*
%TD*%
%TA.AperFunction,Conductor*%
%TO.N,GND*%
G36*
X140502992Y-82250681D02*
G01*
X140795309Y-82268362D01*
X140807164Y-82269802D01*
X141092280Y-82322051D01*
X141103882Y-82324911D01*
X141380623Y-82411147D01*
X141391786Y-82415380D01*
X141652200Y-82532583D01*
X141656118Y-82534347D01*
X141666690Y-82539895D01*
X141914770Y-82689864D01*
X141924583Y-82696638D01*
X142152755Y-82875400D01*
X142161704Y-82883327D01*
X142366672Y-83088295D01*
X142374599Y-83097244D01*
X142553356Y-83325409D01*
X142560138Y-83335233D01*
X142710100Y-83583303D01*
X142715652Y-83593881D01*
X142834616Y-83858206D01*
X142838855Y-83869384D01*
X142925087Y-84146114D01*
X142927948Y-84157722D01*
X142980196Y-84442828D01*
X142981637Y-84454695D01*
X142999319Y-84747006D01*
X142999500Y-84752984D01*
X142999500Y-107497015D01*
X142999319Y-107502993D01*
X142981637Y-107795304D01*
X142980196Y-107807171D01*
X142927948Y-108092277D01*
X142925087Y-108103885D01*
X142838855Y-108380615D01*
X142834616Y-108391793D01*
X142715652Y-108656118D01*
X142710096Y-108666703D01*
X142560142Y-108914758D01*
X142553356Y-108924590D01*
X142374599Y-109152755D01*
X142366672Y-109161704D01*
X142161704Y-109366672D01*
X142152755Y-109374599D01*
X141924590Y-109553356D01*
X141914758Y-109560142D01*
X141677212Y-109703744D01*
X141666703Y-109710097D01*
X141656118Y-109715652D01*
X141391793Y-109834616D01*
X141380615Y-109838855D01*
X141103885Y-109925087D01*
X141092277Y-109927948D01*
X140807171Y-109980196D01*
X140795304Y-109981637D01*
X140523993Y-109998048D01*
X140502991Y-109999319D01*
X140497015Y-109999500D01*
X79502985Y-109999500D01*
X79497008Y-109999319D01*
X79473564Y-109997900D01*
X79204695Y-109981637D01*
X79192828Y-109980196D01*
X78907722Y-109927948D01*
X78896114Y-109925087D01*
X78619384Y-109838855D01*
X78608206Y-109834616D01*
X78343881Y-109715652D01*
X78333303Y-109710100D01*
X78085233Y-109560138D01*
X78075413Y-109553359D01*
X77896344Y-109413067D01*
X77847244Y-109374599D01*
X77838295Y-109366672D01*
X77633327Y-109161704D01*
X77625400Y-109152755D01*
X77608970Y-109131784D01*
X77446638Y-108924583D01*
X77439864Y-108914770D01*
X77383144Y-108820943D01*
X90899500Y-108820943D01*
X90899500Y-108979057D01*
X90940423Y-109131784D01*
X91019480Y-109268716D01*
X91131284Y-109380520D01*
X91268216Y-109459577D01*
X91420943Y-109500500D01*
X91420945Y-109500500D01*
X91579055Y-109500500D01*
X91579057Y-109500500D01*
X91731784Y-109459577D01*
X91868716Y-109380520D01*
X91929998Y-109319237D01*
X91984513Y-109291462D01*
X92044945Y-109301033D01*
X92070000Y-109319236D01*
X92131284Y-109380520D01*
X92268216Y-109459577D01*
X92420943Y-109500500D01*
X92420945Y-109500500D01*
X92579055Y-109500500D01*
X92579057Y-109500500D01*
X92731784Y-109459577D01*
X92868716Y-109380520D01*
X92980520Y-109268716D01*
X93059577Y-109131784D01*
X93100500Y-108979057D01*
X93100500Y-108820943D01*
X93059577Y-108668216D01*
X92980520Y-108531284D01*
X92868716Y-108419480D01*
X92731784Y-108340423D01*
X92579057Y-108299500D01*
X92420943Y-108299500D01*
X92268216Y-108340423D01*
X92131284Y-108419480D01*
X92070001Y-108480762D01*
X92015487Y-108508538D01*
X91955055Y-108498967D01*
X91929999Y-108480763D01*
X91868716Y-108419480D01*
X91731784Y-108340423D01*
X91579057Y-108299500D01*
X91420943Y-108299500D01*
X91268216Y-108340423D01*
X91131284Y-108419480D01*
X91019480Y-108531284D01*
X90940423Y-108668216D01*
X90899500Y-108820943D01*
X77383144Y-108820943D01*
X77289903Y-108666703D01*
X77284347Y-108656118D01*
X77243349Y-108565024D01*
X77165380Y-108391786D01*
X77161147Y-108380623D01*
X77074911Y-108103882D01*
X77072051Y-108092277D01*
X77019803Y-107807171D01*
X77018362Y-107795303D01*
X77000681Y-107502992D01*
X77000500Y-107497015D01*
X77000500Y-105138443D01*
X84717000Y-105138443D01*
X84717000Y-105296557D01*
X84757923Y-105449284D01*
X84836980Y-105586216D01*
X84948784Y-105698020D01*
X85085716Y-105777077D01*
X85238443Y-105818000D01*
X85238445Y-105818000D01*
X85396555Y-105818000D01*
X85396557Y-105818000D01*
X85549284Y-105777077D01*
X85686216Y-105698020D01*
X85798020Y-105586216D01*
X85877077Y-105449284D01*
X85918000Y-105296557D01*
X85918000Y-105138443D01*
X85877077Y-104985716D01*
X85798020Y-104848784D01*
X85686216Y-104736980D01*
X85549284Y-104657923D01*
X85396557Y-104617000D01*
X85238443Y-104617000D01*
X85085716Y-104657923D01*
X84948784Y-104736980D01*
X84836980Y-104848784D01*
X84757923Y-104985716D01*
X84717000Y-105138443D01*
X77000500Y-105138443D01*
X77000500Y-104070943D01*
X110449500Y-104070943D01*
X110449500Y-104229057D01*
X110490423Y-104381784D01*
X110569480Y-104518716D01*
X110681284Y-104630520D01*
X110818216Y-104709577D01*
X110970943Y-104750500D01*
X110970945Y-104750500D01*
X111129055Y-104750500D01*
X111129057Y-104750500D01*
X111281784Y-104709577D01*
X111418716Y-104630520D01*
X111478293Y-104570943D01*
X126502066Y-104570943D01*
X126502066Y-104729057D01*
X126542989Y-104881784D01*
X126622046Y-105018716D01*
X126733850Y-105130520D01*
X126870782Y-105209577D01*
X127023509Y-105250500D01*
X127023511Y-105250500D01*
X127181621Y-105250500D01*
X127181623Y-105250500D01*
X127334350Y-105209577D01*
X127471282Y-105130520D01*
X127583086Y-105018716D01*
X127662143Y-104881784D01*
X127703066Y-104729057D01*
X127703066Y-104570943D01*
X127662143Y-104418216D01*
X127583086Y-104281284D01*
X127471282Y-104169480D01*
X127334350Y-104090423D01*
X127181623Y-104049500D01*
X127023509Y-104049500D01*
X126870782Y-104090423D01*
X126733850Y-104169480D01*
X126622046Y-104281284D01*
X126542989Y-104418216D01*
X126502066Y-104570943D01*
X111478293Y-104570943D01*
X111530520Y-104518716D01*
X111609577Y-104381784D01*
X111650500Y-104229057D01*
X111650500Y-104070943D01*
X111609577Y-103918216D01*
X111530520Y-103781284D01*
X111418716Y-103669480D01*
X111281784Y-103590423D01*
X111129057Y-103549500D01*
X110970943Y-103549500D01*
X110818216Y-103590423D01*
X110681284Y-103669480D01*
X110569480Y-103781284D01*
X110490423Y-103918216D01*
X110449500Y-104070943D01*
X77000500Y-104070943D01*
X77000500Y-102320943D01*
X90899500Y-102320943D01*
X90899500Y-102479057D01*
X90940423Y-102631784D01*
X91019480Y-102768716D01*
X91131284Y-102880520D01*
X91268216Y-102959577D01*
X91420943Y-103000500D01*
X91420945Y-103000500D01*
X91579055Y-103000500D01*
X91579057Y-103000500D01*
X91731784Y-102959577D01*
X91868716Y-102880520D01*
X91929998Y-102819237D01*
X91984513Y-102791462D01*
X92044945Y-102801033D01*
X92070000Y-102819236D01*
X92131284Y-102880520D01*
X92268216Y-102959577D01*
X92420943Y-103000500D01*
X92420945Y-103000500D01*
X92579055Y-103000500D01*
X92579057Y-103000500D01*
X92731784Y-102959577D01*
X92868716Y-102880520D01*
X92929998Y-102819237D01*
X92984513Y-102791462D01*
X93044945Y-102801033D01*
X93070000Y-102819236D01*
X93131284Y-102880520D01*
X93268216Y-102959577D01*
X93420943Y-103000500D01*
X93420945Y-103000500D01*
X93579055Y-103000500D01*
X93579057Y-103000500D01*
X93731784Y-102959577D01*
X93868716Y-102880520D01*
X93980520Y-102768716D01*
X94059577Y-102631784D01*
X94100500Y-102479057D01*
X94100500Y-102320943D01*
X94059577Y-102168216D01*
X93980520Y-102031284D01*
X93868716Y-101919480D01*
X93731784Y-101840423D01*
X93579057Y-101799500D01*
X93420943Y-101799500D01*
X93268216Y-101840423D01*
X93131284Y-101919480D01*
X93070001Y-101980762D01*
X93015487Y-102008538D01*
X92955055Y-101998967D01*
X92929999Y-101980763D01*
X92868716Y-101919480D01*
X92731784Y-101840423D01*
X92579057Y-101799500D01*
X92420943Y-101799500D01*
X92268216Y-101840423D01*
X92131284Y-101919480D01*
X92070001Y-101980762D01*
X92015487Y-102008538D01*
X91955055Y-101998967D01*
X91929999Y-101980763D01*
X91868716Y-101919480D01*
X91731784Y-101840423D01*
X91579057Y-101799500D01*
X91420943Y-101799500D01*
X91268216Y-101840423D01*
X91131284Y-101919480D01*
X91019480Y-102031284D01*
X90940423Y-102168216D01*
X90899500Y-102320943D01*
X77000500Y-102320943D01*
X77000500Y-100424234D01*
X80237500Y-100424234D01*
X80237500Y-100575766D01*
X80272086Y-100704847D01*
X80276720Y-100722139D01*
X80352481Y-100853360D01*
X80352483Y-100853362D01*
X80352485Y-100853365D01*
X80459635Y-100960515D01*
X80459637Y-100960516D01*
X80459639Y-100960518D01*
X80590861Y-101036279D01*
X80590859Y-101036279D01*
X80590863Y-101036280D01*
X80590865Y-101036281D01*
X80737234Y-101075500D01*
X80737236Y-101075500D01*
X80888764Y-101075500D01*
X80888766Y-101075500D01*
X81035135Y-101036281D01*
X81035137Y-101036279D01*
X81035139Y-101036279D01*
X81166360Y-100960518D01*
X81166360Y-100960517D01*
X81166365Y-100960515D01*
X81273515Y-100853365D01*
X81349281Y-100722135D01*
X81388500Y-100575766D01*
X81388500Y-100424234D01*
X81349281Y-100277865D01*
X81349279Y-100277862D01*
X81349279Y-100277860D01*
X81273518Y-100146639D01*
X81273516Y-100146637D01*
X81273515Y-100146635D01*
X81166365Y-100039485D01*
X81166362Y-100039483D01*
X81166360Y-100039481D01*
X81035138Y-99963720D01*
X81035140Y-99963720D01*
X80978347Y-99948503D01*
X80888766Y-99924500D01*
X80737234Y-99924500D01*
X80647652Y-99948503D01*
X80590860Y-99963720D01*
X80459639Y-100039481D01*
X80352481Y-100146639D01*
X80276720Y-100277860D01*
X80276719Y-100277865D01*
X80237500Y-100424234D01*
X77000500Y-100424234D01*
X77000500Y-98420943D01*
X78399500Y-98420943D01*
X78399500Y-98579057D01*
X78440423Y-98731784D01*
X78519480Y-98868716D01*
X78631284Y-98980520D01*
X78768216Y-99059577D01*
X78920943Y-99100500D01*
X78920945Y-99100500D01*
X79079055Y-99100500D01*
X79079057Y-99100500D01*
X79231784Y-99059577D01*
X79368716Y-98980520D01*
X79480520Y-98868716D01*
X79559577Y-98731784D01*
X79600500Y-98579057D01*
X79600500Y-98420943D01*
X91899500Y-98420943D01*
X91899500Y-98579057D01*
X91940423Y-98731784D01*
X92019480Y-98868716D01*
X92131284Y-98980520D01*
X92268216Y-99059577D01*
X92420943Y-99100500D01*
X92420945Y-99100500D01*
X92579055Y-99100500D01*
X92579057Y-99100500D01*
X92731784Y-99059577D01*
X92868716Y-98980520D01*
X92980520Y-98868716D01*
X93059577Y-98731784D01*
X93100500Y-98579057D01*
X93100500Y-98420943D01*
X93059577Y-98268216D01*
X92980520Y-98131284D01*
X92868716Y-98019480D01*
X92731784Y-97940423D01*
X92579057Y-97899500D01*
X92420943Y-97899500D01*
X92268216Y-97940423D01*
X92131284Y-98019480D01*
X92019480Y-98131284D01*
X91940423Y-98268216D01*
X91899500Y-98420943D01*
X79600500Y-98420943D01*
X79559577Y-98268216D01*
X79480520Y-98131284D01*
X79368716Y-98019480D01*
X79231784Y-97940423D01*
X79079057Y-97899500D01*
X78920943Y-97899500D01*
X78768216Y-97940423D01*
X78631284Y-98019480D01*
X78519480Y-98131284D01*
X78440423Y-98268216D01*
X78399500Y-98420943D01*
X77000500Y-98420943D01*
X77000500Y-95920943D01*
X91899500Y-95920943D01*
X91899500Y-96079057D01*
X91940423Y-96231784D01*
X92019480Y-96368716D01*
X92131284Y-96480520D01*
X92268216Y-96559577D01*
X92420943Y-96600500D01*
X92420945Y-96600500D01*
X92579055Y-96600500D01*
X92579057Y-96600500D01*
X92731784Y-96559577D01*
X92868716Y-96480520D01*
X92980520Y-96368716D01*
X93059577Y-96231784D01*
X93100500Y-96079057D01*
X93100500Y-95920943D01*
X102899500Y-95920943D01*
X102899500Y-96079057D01*
X102940423Y-96231784D01*
X103019480Y-96368716D01*
X103131284Y-96480520D01*
X103268216Y-96559577D01*
X103420943Y-96600500D01*
X103420945Y-96600500D01*
X103579055Y-96600500D01*
X103579057Y-96600500D01*
X103731784Y-96559577D01*
X103760778Y-96542837D01*
X103820623Y-96530116D01*
X103876519Y-96555002D01*
X103905901Y-96602949D01*
X103940423Y-96731784D01*
X104019480Y-96868716D01*
X104131284Y-96980520D01*
X104268216Y-97059577D01*
X104397049Y-97094097D01*
X104448362Y-97127420D01*
X104470289Y-97184541D01*
X104457162Y-97239221D01*
X104440425Y-97268211D01*
X104440424Y-97268214D01*
X104399498Y-97420951D01*
X104398991Y-97424803D01*
X104372647Y-97480027D01*
X104318875Y-97509219D01*
X104275218Y-97507503D01*
X104154792Y-97475235D01*
X103996678Y-97475235D01*
X103843951Y-97516158D01*
X103707019Y-97595215D01*
X103595215Y-97707019D01*
X103516158Y-97843951D01*
X103475235Y-97996678D01*
X103475235Y-98154792D01*
X103475236Y-98154794D01*
X103516158Y-98307520D01*
X103597897Y-98449097D01*
X103610618Y-98508945D01*
X103585731Y-98564840D01*
X103582164Y-98568599D01*
X103519482Y-98631281D01*
X103519480Y-98631283D01*
X103519480Y-98631284D01*
X103440423Y-98768216D01*
X103399500Y-98920943D01*
X103399500Y-99079057D01*
X103440423Y-99231784D01*
X103519480Y-99368716D01*
X103631284Y-99480520D01*
X103768216Y-99559577D01*
X103920943Y-99600500D01*
X103920945Y-99600500D01*
X104079055Y-99600500D01*
X104079057Y-99600500D01*
X104231784Y-99559577D01*
X104368716Y-99480520D01*
X104480520Y-99368716D01*
X104559577Y-99231784D01*
X104600500Y-99079057D01*
X104600500Y-98920943D01*
X104573705Y-98820943D01*
X108949500Y-98820943D01*
X108949500Y-98979057D01*
X108990423Y-99131784D01*
X109069480Y-99268716D01*
X109181284Y-99380520D01*
X109318216Y-99459577D01*
X109470943Y-99500500D01*
X109470945Y-99500500D01*
X109629055Y-99500500D01*
X109629057Y-99500500D01*
X109781784Y-99459577D01*
X109918716Y-99380520D01*
X110030520Y-99268716D01*
X110109577Y-99131784D01*
X110150500Y-98979057D01*
X110150500Y-98820943D01*
X110109577Y-98668216D01*
X110030520Y-98531284D01*
X109918716Y-98419480D01*
X109781784Y-98340423D01*
X109629057Y-98299500D01*
X109470943Y-98299500D01*
X109318216Y-98340423D01*
X109181284Y-98419480D01*
X109069480Y-98531284D01*
X108990423Y-98668216D01*
X108949500Y-98820943D01*
X104573705Y-98820943D01*
X104559577Y-98768216D01*
X104480520Y-98631284D01*
X104480518Y-98631282D01*
X104477837Y-98626638D01*
X104465116Y-98566789D01*
X104490003Y-98510894D01*
X104493552Y-98507153D01*
X104556255Y-98444451D01*
X104635312Y-98307519D01*
X104676235Y-98154792D01*
X104676235Y-98154778D01*
X104676741Y-98150941D01*
X104703079Y-98095715D01*
X104756848Y-98066517D01*
X104800512Y-98068230D01*
X104920943Y-98100500D01*
X104920946Y-98100500D01*
X105079055Y-98100500D01*
X105079057Y-98100500D01*
X105231784Y-98059577D01*
X105368716Y-97980520D01*
X105480520Y-97868716D01*
X105559577Y-97731784D01*
X105600500Y-97579057D01*
X105600500Y-97420943D01*
X105559577Y-97268216D01*
X105480520Y-97131284D01*
X105368716Y-97019480D01*
X105231784Y-96940423D01*
X105102949Y-96905901D01*
X105051637Y-96872579D01*
X105029710Y-96815457D01*
X105042837Y-96760778D01*
X105059577Y-96731784D01*
X105100500Y-96579057D01*
X105100500Y-96420943D01*
X105059577Y-96268216D01*
X104980520Y-96131284D01*
X104868716Y-96019480D01*
X104731784Y-95940423D01*
X104579057Y-95899500D01*
X104420943Y-95899500D01*
X104268216Y-95940423D01*
X104268214Y-95940423D01*
X104268214Y-95940424D01*
X104268211Y-95940425D01*
X104239221Y-95957162D01*
X104179373Y-95969882D01*
X104123478Y-95944995D01*
X104094097Y-95897050D01*
X104059577Y-95768216D01*
X103980520Y-95631284D01*
X103868716Y-95519480D01*
X103731784Y-95440423D01*
X103579057Y-95399500D01*
X103420943Y-95399500D01*
X103268216Y-95440423D01*
X103131284Y-95519480D01*
X103019480Y-95631284D01*
X102940423Y-95768216D01*
X102899500Y-95920943D01*
X93100500Y-95920943D01*
X93059577Y-95768216D01*
X92980520Y-95631284D01*
X92868716Y-95519480D01*
X92731784Y-95440423D01*
X92579057Y-95399500D01*
X92420943Y-95399500D01*
X92268216Y-95440423D01*
X92131284Y-95519480D01*
X92019480Y-95631284D01*
X91940423Y-95768216D01*
X91899500Y-95920943D01*
X77000500Y-95920943D01*
X77000500Y-94424234D01*
X80237500Y-94424234D01*
X80237500Y-94575766D01*
X80272086Y-94704847D01*
X80276720Y-94722139D01*
X80352481Y-94853360D01*
X80352483Y-94853362D01*
X80352485Y-94853365D01*
X80459635Y-94960515D01*
X80459637Y-94960516D01*
X80459639Y-94960518D01*
X80590861Y-95036279D01*
X80590859Y-95036279D01*
X80590863Y-95036280D01*
X80590865Y-95036281D01*
X80737234Y-95075500D01*
X80737236Y-95075500D01*
X80888764Y-95075500D01*
X80888766Y-95075500D01*
X81035135Y-95036281D01*
X81035137Y-95036279D01*
X81035139Y-95036279D01*
X81166360Y-94960518D01*
X81166360Y-94960517D01*
X81166365Y-94960515D01*
X81273515Y-94853365D01*
X81349281Y-94722135D01*
X81388500Y-94575766D01*
X81388500Y-94424234D01*
X81349281Y-94277865D01*
X81349279Y-94277862D01*
X81349279Y-94277860D01*
X81273518Y-94146639D01*
X81273516Y-94146637D01*
X81273515Y-94146635D01*
X81166365Y-94039485D01*
X81166362Y-94039483D01*
X81166360Y-94039481D01*
X81035138Y-93963720D01*
X81035140Y-93963720D01*
X80978347Y-93948503D01*
X80888766Y-93924500D01*
X80737234Y-93924500D01*
X80647652Y-93948503D01*
X80590860Y-93963720D01*
X80459639Y-94039481D01*
X80352481Y-94146639D01*
X80276720Y-94277860D01*
X80276719Y-94277865D01*
X80237500Y-94424234D01*
X77000500Y-94424234D01*
X77000500Y-93420943D01*
X88399500Y-93420943D01*
X88399500Y-93579057D01*
X88440423Y-93731784D01*
X88519480Y-93868716D01*
X88631284Y-93980520D01*
X88768216Y-94059577D01*
X88920943Y-94100500D01*
X88920945Y-94100500D01*
X89079055Y-94100500D01*
X89079057Y-94100500D01*
X89231784Y-94059577D01*
X89368716Y-93980520D01*
X89429998Y-93919237D01*
X89484513Y-93891462D01*
X89544945Y-93901033D01*
X89570000Y-93919236D01*
X89631284Y-93980520D01*
X89768216Y-94059577D01*
X89920943Y-94100500D01*
X89920945Y-94100500D01*
X90079055Y-94100500D01*
X90079057Y-94100500D01*
X90231784Y-94059577D01*
X90368716Y-93980520D01*
X90480520Y-93868716D01*
X90559577Y-93731784D01*
X90600500Y-93579057D01*
X90600500Y-93420943D01*
X103399500Y-93420943D01*
X103399500Y-93579057D01*
X103440423Y-93731784D01*
X103519480Y-93868716D01*
X103631284Y-93980520D01*
X103768216Y-94059577D01*
X103920943Y-94100500D01*
X103920945Y-94100500D01*
X104079055Y-94100500D01*
X104079057Y-94100500D01*
X104231784Y-94059577D01*
X104368716Y-93980520D01*
X104480520Y-93868716D01*
X104559577Y-93731784D01*
X104600500Y-93579057D01*
X104600500Y-93420943D01*
X104559577Y-93268216D01*
X104480520Y-93131284D01*
X104368716Y-93019480D01*
X104231784Y-92940423D01*
X104079057Y-92899500D01*
X103920943Y-92899500D01*
X103768216Y-92940423D01*
X103631284Y-93019480D01*
X103519480Y-93131284D01*
X103440423Y-93268216D01*
X103399500Y-93420943D01*
X90600500Y-93420943D01*
X90559577Y-93268216D01*
X90480520Y-93131284D01*
X90368716Y-93019480D01*
X90231784Y-92940423D01*
X90079057Y-92899500D01*
X89920943Y-92899500D01*
X89768216Y-92940423D01*
X89631284Y-93019480D01*
X89570001Y-93080762D01*
X89515487Y-93108538D01*
X89455055Y-93098967D01*
X89429999Y-93080763D01*
X89368716Y-93019480D01*
X89231784Y-92940423D01*
X89079057Y-92899500D01*
X88920943Y-92899500D01*
X88768216Y-92940423D01*
X88631284Y-93019480D01*
X88519480Y-93131284D01*
X88440423Y-93268216D01*
X88399500Y-93420943D01*
X77000500Y-93420943D01*
X77000500Y-92020943D01*
X90949500Y-92020943D01*
X90949500Y-92179057D01*
X90990423Y-92331784D01*
X91069480Y-92468716D01*
X91181284Y-92580520D01*
X91318216Y-92659577D01*
X91470943Y-92700500D01*
X91470945Y-92700500D01*
X91629055Y-92700500D01*
X91629057Y-92700500D01*
X91781784Y-92659577D01*
X91918716Y-92580520D01*
X92030520Y-92468716D01*
X92044092Y-92445208D01*
X112323765Y-92445208D01*
X112323765Y-92603322D01*
X112364688Y-92756049D01*
X112443745Y-92892981D01*
X112555549Y-93004785D01*
X112692481Y-93083842D01*
X112845208Y-93124765D01*
X112845210Y-93124765D01*
X113003320Y-93124765D01*
X113003322Y-93124765D01*
X113156049Y-93083842D01*
X113292981Y-93004785D01*
X113404785Y-92892981D01*
X113483842Y-92756049D01*
X113524765Y-92603322D01*
X113524765Y-92445208D01*
X113483842Y-92292481D01*
X113404785Y-92155549D01*
X113292981Y-92043745D01*
X113156049Y-91964688D01*
X113003322Y-91923765D01*
X112845208Y-91923765D01*
X112692481Y-91964688D01*
X112555549Y-92043745D01*
X112443745Y-92155549D01*
X112364688Y-92292481D01*
X112323765Y-92445208D01*
X92044092Y-92445208D01*
X92109577Y-92331784D01*
X92150500Y-92179057D01*
X92150500Y-92020943D01*
X92109577Y-91868216D01*
X92030520Y-91731284D01*
X91918716Y-91619480D01*
X91781784Y-91540423D01*
X91629057Y-91499500D01*
X91470943Y-91499500D01*
X91318216Y-91540423D01*
X91181284Y-91619480D01*
X91069480Y-91731284D01*
X90990423Y-91868216D01*
X90949500Y-92020943D01*
X77000500Y-92020943D01*
X77000500Y-90820943D01*
X108699500Y-90820943D01*
X108699500Y-90979057D01*
X108740423Y-91131784D01*
X108819480Y-91268716D01*
X108931284Y-91380520D01*
X109068216Y-91459577D01*
X109220943Y-91500500D01*
X109220945Y-91500500D01*
X109379055Y-91500500D01*
X109379057Y-91500500D01*
X109531784Y-91459577D01*
X109668716Y-91380520D01*
X109729998Y-91319237D01*
X109784513Y-91291462D01*
X109844945Y-91301033D01*
X109870000Y-91319236D01*
X109931284Y-91380520D01*
X110068216Y-91459577D01*
X110220943Y-91500500D01*
X110220945Y-91500500D01*
X110379055Y-91500500D01*
X110379057Y-91500500D01*
X110531784Y-91459577D01*
X110668716Y-91380520D01*
X110780520Y-91268716D01*
X110859577Y-91131784D01*
X110900500Y-90979057D01*
X110900500Y-90820943D01*
X110859577Y-90668216D01*
X110780520Y-90531284D01*
X110668716Y-90419480D01*
X110531784Y-90340423D01*
X110379057Y-90299500D01*
X110220943Y-90299500D01*
X110068216Y-90340423D01*
X109931284Y-90419480D01*
X109870001Y-90480762D01*
X109815487Y-90508538D01*
X109755055Y-90498967D01*
X109729999Y-90480763D01*
X109668716Y-90419480D01*
X109531784Y-90340423D01*
X109379057Y-90299500D01*
X109220943Y-90299500D01*
X109068216Y-90340423D01*
X108931284Y-90419480D01*
X108819480Y-90531284D01*
X108740423Y-90668216D01*
X108699500Y-90820943D01*
X77000500Y-90820943D01*
X77000500Y-86319443D01*
X84452000Y-86319443D01*
X84452000Y-86477557D01*
X84492923Y-86630284D01*
X84571980Y-86767216D01*
X84683784Y-86879020D01*
X84820716Y-86958077D01*
X84973443Y-86999000D01*
X84973445Y-86999000D01*
X85131555Y-86999000D01*
X85131557Y-86999000D01*
X85284284Y-86958077D01*
X85421216Y-86879020D01*
X85533020Y-86767216D01*
X85612077Y-86630284D01*
X85653000Y-86477557D01*
X85653000Y-86319443D01*
X85612077Y-86166716D01*
X85533020Y-86029784D01*
X85421216Y-85917980D01*
X85284284Y-85838923D01*
X85131557Y-85798000D01*
X84973443Y-85798000D01*
X84820716Y-85838923D01*
X84683784Y-85917980D01*
X84571980Y-86029784D01*
X84492923Y-86166716D01*
X84452000Y-86319443D01*
X77000500Y-86319443D01*
X77000500Y-85191265D01*
X80687831Y-85191265D01*
X80687831Y-85349379D01*
X80728754Y-85502106D01*
X80807811Y-85639038D01*
X80919615Y-85750842D01*
X81056547Y-85829899D01*
X81209274Y-85870822D01*
X81209276Y-85870822D01*
X81367386Y-85870822D01*
X81367388Y-85870822D01*
X81520115Y-85829899D01*
X81657047Y-85750842D01*
X81768851Y-85639038D01*
X81847908Y-85502106D01*
X81888831Y-85349379D01*
X81888831Y-85191265D01*
X81847908Y-85038538D01*
X81768851Y-84901606D01*
X81657047Y-84789802D01*
X81520115Y-84710745D01*
X81367388Y-84669822D01*
X81209274Y-84669822D01*
X81056547Y-84710745D01*
X80919615Y-84789802D01*
X80807811Y-84901606D01*
X80728754Y-85038538D01*
X80687831Y-85191265D01*
X77000500Y-85191265D01*
X77000500Y-84752984D01*
X77000681Y-84747007D01*
X77005350Y-84669822D01*
X77018362Y-84454688D01*
X77019801Y-84442837D01*
X77072052Y-84157715D01*
X77074912Y-84146114D01*
X77129497Y-83970943D01*
X82103500Y-83970943D01*
X82103500Y-84129057D01*
X82144423Y-84281784D01*
X82223480Y-84418716D01*
X82335284Y-84530520D01*
X82472216Y-84609577D01*
X82624943Y-84650500D01*
X82624945Y-84650500D01*
X82783055Y-84650500D01*
X82783057Y-84650500D01*
X82935784Y-84609577D01*
X83072716Y-84530520D01*
X83184520Y-84418716D01*
X83263577Y-84281784D01*
X83304500Y-84129057D01*
X83304500Y-84020943D01*
X92949500Y-84020943D01*
X92949500Y-84179057D01*
X92990423Y-84331784D01*
X93069480Y-84468716D01*
X93181284Y-84580520D01*
X93318216Y-84659577D01*
X93470943Y-84700500D01*
X93470945Y-84700500D01*
X93629055Y-84700500D01*
X93629057Y-84700500D01*
X93781784Y-84659577D01*
X93918716Y-84580520D01*
X94030520Y-84468716D01*
X94109577Y-84331784D01*
X94150500Y-84179057D01*
X94150500Y-84020943D01*
X94109577Y-83868216D01*
X94030520Y-83731284D01*
X93918716Y-83619480D01*
X93781784Y-83540423D01*
X93629057Y-83499500D01*
X93470943Y-83499500D01*
X93318216Y-83540423D01*
X93181284Y-83619480D01*
X93069480Y-83731284D01*
X92990423Y-83868216D01*
X92949500Y-84020943D01*
X83304500Y-84020943D01*
X83304500Y-83970943D01*
X83263577Y-83818216D01*
X83184520Y-83681284D01*
X83072716Y-83569480D01*
X82935784Y-83490423D01*
X82783057Y-83449500D01*
X82624943Y-83449500D01*
X82472216Y-83490423D01*
X82335284Y-83569480D01*
X82223480Y-83681284D01*
X82144423Y-83818216D01*
X82103500Y-83970943D01*
X77129497Y-83970943D01*
X77161148Y-83869370D01*
X77165378Y-83858218D01*
X77284350Y-83593875D01*
X77289891Y-83583315D01*
X77439868Y-83335221D01*
X77446632Y-83325424D01*
X77625407Y-83097235D01*
X77633319Y-83088303D01*
X77838303Y-82883319D01*
X77847235Y-82875407D01*
X78075424Y-82696632D01*
X78085221Y-82689868D01*
X78333315Y-82539891D01*
X78343875Y-82534350D01*
X78608218Y-82415378D01*
X78619370Y-82411148D01*
X78896121Y-82324910D01*
X78907715Y-82322052D01*
X79192837Y-82269801D01*
X79204688Y-82268362D01*
X79497008Y-82250681D01*
X79502985Y-82250500D01*
X79565892Y-82250500D01*
X140434108Y-82250500D01*
X140497015Y-82250500D01*
X140502992Y-82250681D01*
G37*
%TD.AperFunction*%
%TD*%
M02*
