M48
; DRILL file {KiCad 9.0.8-1.fc43} date 2026-04-06T14:18:54+0200
; FORMAT={-:-/ absolute / inch / decimal}
; #@! TF.CreationDate,2026-04-06T14:18:54+02:00
; #@! TF.GenerationSoftware,Kicad,Pcbnew,9.0.8-1.fc43
; #@! TF.FileFunction,Plated,1,4,PTH
FMAT,2
INCH
; #@! TA.AperFunction,Plated,PTH,ViaDrill
T1C0.0118
%
G90
G05
T1
X3.1102Y-3.878
X3.138Y-3.3287
X3.1693Y-4.231
X3.2003Y-3.3571
X3.248Y-3.563
X3.2561Y-3.3091
X3.2856Y-3.4567
X3.3071Y-3.563
X3.3485Y-3.4015
X3.3545Y-3.3287
X3.359Y-4.1424
X3.418Y-4.2566
X3.5039Y-3.6811
X3.5433Y-3.6811
X3.6024Y-4.0315
X3.6024Y-4.2874
X3.6043Y-3.626
X3.6417Y-3.7795
X3.6417Y-3.878
X3.6417Y-4.0315
X3.6417Y-4.2874
X3.6811Y-4.0315
X3.6831Y-3.311
X4.0748Y-3.7795
X4.0945Y-3.6811
X4.0945Y-3.8976
X4.0975Y-3.8612
X4.1142Y-3.7992
X4.1339Y-3.8386
X4.3031Y-3.5787
X4.313Y-3.8937
X4.3425Y-3.5787
X4.372Y-4.1004
X4.4114Y-3.4902
X4.4458Y-3.6427
X4.6298Y-3.9312
X4.6796Y-3.8087
X4.687Y-3.6673
X4.6929Y-4.0965
X4.7559Y-3.9312
X4.9035Y-4.1496
X4.9941Y-4.0
X5.004Y-4.1201
M30
